<?xml version="1.0" encoding="UTF-8"?><svg id="uuid-1f8681c3-e41e-41e7-9ac2-60ca0a478778" xmlns="http://www.w3.org/2000/svg" xmlns:xlink="http://www.w3.org/1999/xlink" viewBox="0 0 447.01 895.47"><defs><linearGradient id="uuid-b8fc7474-badc-4892-be24-bf40a51e09e6" x1="410.62" y1="426.89" x2="413.25" y2="426.89" gradientTransform="translate(-2.82 -264.48) scale(1.09)" gradientUnits="userSpaceOnUse"><stop offset="0" stop-color="#000"/><stop offset=".47" stop-color="#606060"/><stop offset=".7" stop-color="#525252"/><stop offset=".9" stop-color="#8a8a8a"/><stop offset="1" stop-color="#9e9e9e"/></linearGradient><linearGradient id="uuid-86a500f8-fe3f-4c4c-93b7-ef64700b9e3a" x1="-2289.95" y1="426.89" x2="-2287.32" y2="426.89" gradientTransform="translate(-2492.17 -264.59) rotate(-180) scale(1.09 -1.09)" gradientUnits="userSpaceOnUse"><stop offset="0" stop-color="#000"/><stop offset=".47" stop-color="#606060"/><stop offset=".7" stop-color="#525252"/><stop offset=".9" stop-color="#8a8a8a"/><stop offset="1" stop-color="#9e9e9e"/></linearGradient><linearGradient id="uuid-86ace5e9-5559-42aa-80ec-4f76545a9b3c" x1="-2289.95" y1="426.9" x2="-2287.32" y2="426.9" gradientTransform="translate(-2492.17 -192.83) rotate(-180) scale(1.09 -1.09)" gradientUnits="userSpaceOnUse"><stop offset="0" stop-color="#000"/><stop offset=".47" stop-color="#606060"/><stop offset=".7" stop-color="#525252"/><stop offset=".9" stop-color="#8a8a8a"/><stop offset="1" stop-color="#9e9e9e"/></linearGradient><linearGradient id="uuid-f8c68d1c-cf56-4087-9e6f-10a9f9486936" x1="-2289.95" y1="461.72" x2="-2287.32" y2="461.72" gradientTransform="translate(-2492.17 -270.5) rotate(-180) scale(1.09 -.85)" gradientUnits="userSpaceOnUse"><stop offset="0" stop-color="#000"/><stop offset=".47" stop-color="#606060"/><stop offset=".7" stop-color="#525252"/><stop offset=".9" stop-color="#8a8a8a"/><stop offset="1" stop-color="#9e9e9e"/></linearGradient><clipPath id="uuid-6484d15a-a906-4899-84c7-c83c7883fe78"><path d="m253.26,840.33c.1,16.43-13.14,29.83-29.57,29.93s-29.83-13.14-29.93-29.57v-.36c-.1-16.43,13.14-29.83,29.57-29.93,16.43-.1,29.83,13.14,29.93,29.57v.36h0Z" style="fill:none;"/></clipPath><radialGradient id="uuid-18d103d3-bb62-4c1b-ae23-d74f29e8a9a4" cx="-377.07" cy="996.83" fx="-377.07" fy="996.83" r="13.78" gradientTransform="translate(871.22 -940.61) scale(1.79)" gradientUnits="userSpaceOnUse"><stop offset="0" stop-color="#949398"/><stop offset=".5" stop-color="#949398" stop-opacity=".27"/><stop offset="1" stop-color="#949398" stop-opacity="0"/></radialGradient><radialGradient id="uuid-208c1eab-d1d7-401c-9cca-ae9cb17f5d85" cx="-609" cy="967.82" fx="-609" fy="967.82" r="13.78" gradientTransform="translate(1766.63 -1559.85) scale(2.49)" gradientUnits="userSpaceOnUse"><stop offset="0" stop-color="#949398"/><stop offset=".5" stop-color="#949398" stop-opacity=".32"/><stop offset="1" stop-color="#949398" stop-opacity="0"/></radialGradient><linearGradient id="uuid-0bd81510-0835-4baf-86b6-e0ef4515990d" x1="267.62" y1="274.59" x2="276.88" y2="283.26" gradientTransform="translate(-130.97 -230.73) scale(1.02)" gradientUnits="userSpaceOnUse"><stop offset="0" stop-color="#1c1518"/><stop offset="1" stop-color="#191715"/></linearGradient><clipPath id="uuid-038e2a7d-34a6-4a77-8365-ca1a8016378a"><path d="m185.91,51.75h75.19c1.7,0,3.08,1.38,3.08,3.08h0c0,1.7-1.38,3.08-3.08,3.08h-75.19c-1.7,0-3.08-1.38-3.08-3.08h0c0-1.7,1.38-3.08,3.08-3.08Z" style="fill:none;"/></clipPath><linearGradient id="uuid-f5250831-95fa-4aba-9a5b-4e955f01dacd" x1="300.6" y1="1135.22" x2="300.6" y2="1108.62" gradientTransform="translate(-76.5 -236.76)" gradientUnits="userSpaceOnUse"><stop offset="0" stop-color="#fff"/><stop offset="1" stop-color="#fff" stop-opacity="0"/></linearGradient><linearGradient id="uuid-8702e1d8-39b2-4c33-bfdb-081f41c05130" x1="299.44" y1="235.04" x2="299.44" y2="255.26" gradientTransform="translate(-76.5 -236.76)" gradientUnits="userSpaceOnUse"><stop offset="0" stop-color="#fff"/><stop offset="1" stop-color="#fff" stop-opacity="0"/></linearGradient><linearGradient id="uuid-84c9b710-f112-45ae-a160-e30d9f0bfb6a" x1="87.45" y1="683.59" x2="103.77" y2="683.59" gradientTransform="translate(-76.5 -236.76)" gradientUnits="userSpaceOnUse"><stop offset="0" stop-color="#fff" stop-opacity=".71"/><stop offset="1" stop-color="#fff" stop-opacity=".36"/></linearGradient><linearGradient id="uuid-1ec75fcb-4daf-41b7-93e5-3e043d327807" x1="-2854.55" y1="683.59" x2="-2838.23" y2="683.59" gradientTransform="translate(-2418.35 -236.07) rotate(-180) scale(1 -1)" gradientUnits="userSpaceOnUse"><stop offset="0" stop-color="#fff" stop-opacity=".71"/><stop offset="1" stop-color="#fff" stop-opacity=".36"/></linearGradient></defs><path d="m385.64.5H61.38C29.58.5,3.8,26.28,3.8,58.08v779.31c0,31.8,25.78,57.58,57.58,57.58h324.26c31.8,0,57.58-25.78,57.58-57.58V58.08c0-31.8-25.78-57.58-57.58-57.58Zm32.71,792.24H28.97V102.77h389.38v689.97Z" style="stroke:#fff; stroke-miterlimit:10;"/><g><path d="m443.21,172.31v57.06h1.62c1.21,0,2.18-.97,2.18-2.18v-52.67c0-1.21-.97-2.21-2.18-2.21h-1.62Z" style="fill:url(#uuid-b8fc7474-badc-4892-be24-bf40a51e09e6); fill-rule:evenodd;"/><path d="m3.8,172.2v57.06h-1.62c-1.21,0-2.18-.97-2.18-2.18v-52.67c0-1.21.97-2.21,2.18-2.21h1.62Z" style="fill:url(#uuid-86a500f8-fe3f-4c4c-93b7-ef64700b9e3a); fill-rule:evenodd;"/><path d="m3.8,243.97v57.06h-1.62c-1.21,0-2.18-.97-2.18-2.18v-52.67c0-1.21.97-2.21,2.18-2.21h1.62Z" style="fill:url(#uuid-86ace5e9-5559-42aa-80ec-4f76545a9b3c); fill-rule:evenodd;"/><path d="m3.8,106.74v30.46h-1.62c-1.21,0-2.18-.76-2.18-1.71v-27.02c0-.95.97-1.74,2.18-1.74h1.62Z" style="fill:url(#uuid-f8c68d1c-cf56-4087-9e6f-10a9f9486936); fill-rule:evenodd;"/></g><g><path d="m253.26,840.33c.1,16.43-13.14,29.83-29.57,29.93s-29.83-13.14-29.93-29.57v-.36c-.1-16.43,13.14-29.83,29.57-29.93,16.43-.1,29.83,13.14,29.93,29.57v.36h0Z" style="fill:#1b1b1b; fill-rule:evenodd;"/><g style="clip-path:url(#uuid-6484d15a-a906-4899-84c7-c83c7883fe78);"><g><path d="m221,843.78c0,13.61-11.03,24.64-24.64,24.64s-24.64-11.03-24.64-24.64,11.03-24.64,24.64-24.64,24.64,11.03,24.64,24.64h0Z" style="fill:url(#uuid-18d103d3-bb62-4c1b-ae23-d74f29e8a9a4); fill-rule:evenodd;"/><path d="m283.91,849.76c0,18.98-15.39,34.37-34.37,34.37s-34.37-15.39-34.37-34.37,15.39-34.37,34.37-34.37,34.37,15.39,34.37,34.37h0Z" style="fill:url(#uuid-208c1eab-d1d7-401c-9cca-ae9cb17f5d85); fill-rule:evenodd;"/></g></g><path d="m250.01,840.33c.09,14.64-11.71,26.58-26.35,26.67-14.64.09-26.58-11.71-26.67-26.35v-.32c-.09-14.64,11.71-26.58,26.35-26.67,14.64-.09,26.58,11.71,26.67,26.35v.32Z" style="fill-rule:evenodd;"/></g><g><path d="m153.84,54.39c0,3.56-2.89,6.45-6.45,6.45s-6.45-2.89-6.45-6.45h0c0-3.56,2.89-6.45,6.45-6.45s6.45,2.89,6.45,6.45Z" style="fill:url(#uuid-0bd81510-0835-4baf-86b6-e0ef4515990d); fill-rule:evenodd;"/><path d="m151.53,54.59c0,2.36-1.91,4.27-4.27,4.26-2.35,0-4.26-1.91-4.26-4.26s1.91-4.27,4.26-4.27,4.27,1.91,4.27,4.26h0Z"/><path d="m151.25,54.59c0,2.2-1.77,4-3.97,4.01s-4-1.77-4.01-3.97v-.04c0-2.2,1.77-4,3.97-4.01,2.2,0,4,1.77,4.01,3.97v.04Z" style="fill:#003ba7;"/><path d="m149.72,54.45c0,1.32-1.07,2.39-2.39,2.39s-2.39-1.07-2.39-2.39,1.07-2.39,2.39-2.39,2.39,1.07,2.39,2.39Z" style="fill:#232323; isolation:isolate; opacity:.75; stroke:#555; stroke-width:.48px;"/><path d="m185.91,51.75h75.19c1.7,0,3.08,1.38,3.08,3.08h0c0,1.7-1.38,3.08-3.08,3.08h-75.19c-1.7,0-3.08-1.38-3.08-3.08h0c0-1.7,1.38-3.08,3.08-3.08Z" style="fill:#393939; fill-rule:evenodd;"/><g style="clip-path:url(#uuid-038e2a7d-34a6-4a77-8365-ca1a8016378a);"><g><path d="m192.91,46.8h0c.59-.54,1.19-.85,1.33-.7h0c.14.16-.22.72-.81,1.26h0c-.59.54-1.19.85-1.33.7h0c-.14-.16.22-.72.81-1.26Z" style="fill:#626262; stroke:#313131; stroke-width:.31px;"/><path d="m189.5,46.89h0c.59-.54,1.19-.85,1.33-.7h0c.14.16-.22.72-.81,1.26h0c-.59.54-1.19.85-1.33.7h0c-.14-.16.22-.72.81-1.26Z" style="fill:#626262; stroke:#313131; stroke-width:.31px;"/><path d="m199.34,46.84h0c.59-.54,1.19-.85,1.33-.7h0c.14.16-.22.72-.81,1.26h0c-.59.54-1.19.85-1.33.7h0c-.14-.16.22-.72.81-1.26Z" style="fill:#626262; stroke:#313131; stroke-width:.31px;"/><path d="m196.23,46.86h0c.59-.54,1.19-.85,1.33-.7h0c.14.16-.22.72-.81,1.26h0c-.59.54-1.19.85-1.33.7h0c-.14-.16.22-.72.81-1.26Z" style="fill:#626262; stroke:#313131; stroke-width:.31px;"/><path d="m205.81,46.69h0c.59-.54,1.19-.85,1.33-.7h0c.14.16-.22.72-.81,1.26h0c-.59.54-1.19.85-1.33.7h0c-.14-.16.22-.72.81-1.26Z" style="fill:#626262; stroke:#313131; stroke-width:.31px;"/><path d="m202.4,46.78h0c.59-.54,1.19-.85,1.33-.7h0c.14.16-.22.72-.81,1.26h0c-.59.54-1.19.85-1.33.7h0c-.14-.16.22-.72.81-1.26Z" style="fill:#626262; stroke:#313131; stroke-width:.31px;"/><path d="m212.24,46.73h0c.59-.54,1.19-.85,1.33-.7h0c.14.16-.22.72-.81,1.26h0c-.59.54-1.19.85-1.33.7h0c-.14-.16.22-.72.81-1.26Z" style="fill:#626262; stroke:#313131; stroke-width:.31px;"/><path d="m209.13,46.75h0c.59-.54,1.19-.85,1.33-.7h0c.14.16-.22.72-.81,1.26h0c-.59.54-1.19.85-1.33.7h0c-.14-.16.22-.72.81-1.26Z" style="fill:#626262; stroke:#313131; stroke-width:.31px;"/><path d="m218.65,46.66h0c.59-.54,1.19-.85,1.33-.7h0c.14.16-.22.72-.81,1.26h0c-.59.54-1.19.85-1.33.7h0c-.14-.16.22-.72.81-1.26Z" style="fill:#626262; stroke:#313131; stroke-width:.31px;"/><path d="m215.23,46.76h0c.59-.54,1.19-.85,1.33-.7h0c.14.16-.22.72-.81,1.26h0c-.59.54-1.19.85-1.33.7h0c-.14-.16.22-.72.81-1.26Z" style="fill:#626262; stroke:#313131; stroke-width:.31px;"/><path d="m225.08,46.71h0c.59-.54,1.19-.85,1.33-.7h0c.14.16-.22.72-.81,1.26h0c-.59.54-1.19.85-1.33.7h0c-.14-.16.22-.72.81-1.26Z" style="fill:#626262; stroke:#313131; stroke-width:.31px;"/><path d="m221.96,46.73h0c.59-.54,1.19-.85,1.33-.7h0c.14.16-.22.72-.81,1.26h0c-.59.54-1.19.85-1.33.7h0c-.14-.16.22-.72.81-1.26Z" style="fill:#626262; stroke:#313131; stroke-width:.31px;"/><path d="m231.54,46.56h0c.59-.54,1.19-.85,1.33-.7h0c.14.16-.22.72-.81,1.26h0c-.59.54-1.19.85-1.33.7h0c-.14-.16.22-.72.81-1.26Z" style="fill:#626262; stroke:#313131; stroke-width:.31px;"/><path d="m228.12,46.65h0c.59-.54,1.19-.85,1.33-.7h0c.14.16-.22.72-.81,1.26h0c-.59.54-1.19.85-1.33.7h0c-.14-.16.22-.72.81-1.26Z" style="fill:#626262; stroke:#313131; stroke-width:.31px;"/><path d="m237.96,46.6h0c.59-.54,1.19-.85,1.33-.7h0c.14.16-.22.72-.81,1.26h0c-.59.54-1.19.85-1.33.7h0c-.14-.16.22-.72.81-1.26Z" style="fill:#626262; stroke:#313131; stroke-width:.31px;"/><path d="m234.86,46.62h0c.59-.54,1.19-.85,1.33-.7h0c.14.16-.22.72-.81,1.26h0c-.59.54-1.19.85-1.33.7h0c-.14-.16.22-.72.81-1.26Z" style="fill:#626262; stroke:#313131; stroke-width:.31px;"/><path d="m244.43,46.58h0c.59-.54,1.19-.85,1.33-.7h0c.14.16-.22.72-.81,1.26h0c-.59.54-1.19.85-1.33.7h0c-.14-.16.22-.72.81-1.26Z" style="fill:#626262; stroke:#313131; stroke-width:.31px;"/><path d="m241.01,46.67h0c.59-.54,1.19-.85,1.33-.7h0c.14.16-.22.72-.81,1.26h0c-.59.54-1.19.85-1.33.7h0c-.14-.16.22-.72.81-1.26Z" style="fill:#626262; stroke:#313131; stroke-width:.31px;"/><path d="m250.86,46.62h0c.59-.54,1.19-.85,1.33-.7h0c.14.16-.22.72-.81,1.26h0c-.59.54-1.19.85-1.33.7h0c-.14-.16.22-.72.81-1.26Z" style="fill:#626262; stroke:#313131; stroke-width:.31px;"/><path d="m247.74,46.64h0c.59-.54,1.19-.85,1.33-.7h0c.14.16-.22.72-.81,1.26h0c-.59.54-1.19.85-1.33.7h0c-.14-.16.22-.72.81-1.26Z" style="fill:#626262; stroke:#313131; stroke-width:.31px;"/><path d="m257.32,46.47h0c.59-.54,1.19-.85,1.33-.7h0c.14.16-.22.72-.81,1.26h0c-.59.54-1.19.85-1.33.7h0c-.14-.16.22-.72.81-1.26Z" style="fill:#626262; stroke:#313131; stroke-width:.31px;"/><path d="m253.91,46.56h0c.59-.54,1.19-.85,1.33-.7h0c.14.16-.22.72-.81,1.26h0c-.59.54-1.19.85-1.33.7h0c-.14-.16.22-.72.81-1.26Z" style="fill:#626262; stroke:#313131; stroke-width:.31px;"/><path d="m186.55,46.81h0c.59-.54,1.19-.85,1.33-.7h0c.14.16-.22.72-.81,1.26h0c-.59.54-1.19.85-1.33.7h0c-.14-.16.22-.72.81-1.26Z" style="fill:#626262; stroke:#313131; stroke-width:.31px;"/><path d="m194.56,48.57h0c.59.54,1.19.85,1.33.7h0c.14-.16-.22-.72-.81-1.26h0c-.59-.54-1.19-.85-1.33-.7h0c-.14.16.22.72.81,1.26Z" style="fill:#626262; stroke:#313131; stroke-width:.31px;"/><path d="m191.14,48.48h0c.59.54,1.19.85,1.33.7h0c.14-.16-.22-.72-.81-1.26h0c-.59-.54-1.19-.85-1.33-.7h0c-.14.16.22.72.81,1.26Z" style="fill:#626262; stroke:#313131; stroke-width:.31px;"/><path d="m200.98,48.52h0c.59.54,1.19.85,1.33.7h0c.14-.16-.22-.72-.81-1.26h0c-.59-.54-1.19-.85-1.33-.7h0c-.14.16.22.72.81,1.26Z" style="fill:#626262; stroke:#313131; stroke-width:.31px;"/><path d="m197.87,48.51h0c.59.54,1.19.85,1.33.7h0c.14-.16-.22-.72-.81-1.26h0c-.59-.54-1.19-.85-1.33-.7h0c-.14.16.22.72.81,1.26Z" style="fill:#626262; stroke:#313131; stroke-width:.31px;"/><path d="m207.45,48.68h0c.59.54,1.19.85,1.33.7h0c.14-.16-.22-.72-.81-1.26h0c-.59-.54-1.19-.85-1.33-.7h0c-.14.16.22.72.81,1.26Z" style="fill:#626262; stroke:#313131; stroke-width:.31px;"/><path d="m204.03,48.59h0c.59.54,1.19.85,1.33.7h0c.14-.16-.22-.72-.81-1.26h0c-.59-.54-1.19-.85-1.33-.7h0c-.14.16.22.72.81,1.26Z" style="fill:#626262; stroke:#313131; stroke-width:.31px;"/><path d="m213.87,48.64h0c.59.54,1.19.85,1.33.7h0c.14-.16-.22-.72-.81-1.26h0c-.59-.54-1.19-.85-1.33-.7h0c-.14.16.22.72.81,1.26Z" style="fill:#626262; stroke:#313131; stroke-width:.31px;"/><path d="m210.77,48.62h0c.59.54,1.19.85,1.33.7h0c.14-.16-.22-.72-.81-1.26h0c-.59-.54-1.19-.85-1.33-.7h0c-.14.16.22.72.81,1.26Z" style="fill:#626262; stroke:#313131; stroke-width:.31px;"/><path d="m220.29,48.71h0c.59.54,1.19.85,1.33.7h0c.14-.16-.22-.72-.81-1.26h0c-.59-.54-1.19-.85-1.33-.7h0c-.14.16.22.72.81,1.26Z" style="fill:#626262; stroke:#313131; stroke-width:.31px;"/><path d="m216.88,48.61h0c.59.54,1.19.85,1.33.7h0c.14-.16-.22-.72-.81-1.26h0c-.59-.54-1.19-.85-1.33-.7h0c-.14.16.22.72.81,1.26Z" style="fill:#626262; stroke:#313131; stroke-width:.31px;"/><path d="m226.71,48.66h0c.59.54,1.19.85,1.33.7h0c.14-.16-.22-.72-.81-1.26h0c-.59-.54-1.19-.85-1.33-.7h0c-.14.16.22.72.81,1.26Z" style="fill:#626262; stroke:#313131; stroke-width:.31px;"/><path d="m223.61,48.64h0c.59.54,1.19.85,1.33.7h0c.14-.16-.22-.72-.81-1.26h0c-.59-.54-1.19-.85-1.33-.7h0c-.14.16.22.72.81,1.26Z" style="fill:#626262; stroke:#313131; stroke-width:.31px;"/><path d="m233.18,48.81h0c.59.54,1.19.85,1.33.7h0c.14-.16-.22-.72-.81-1.26h0c-.59-.54-1.19-.85-1.33-.7h0c-.14.16.22.72.81,1.26Z" style="fill:#626262; stroke:#313131; stroke-width:.31px;"/><path d="m229.76,48.72h0c.59.54,1.19.85,1.33.7h0c.14-.16-.22-.72-.81-1.26h0c-.59-.54-1.19-.85-1.33-.7h0c-.14.16.22.72.81,1.26Z" style="fill:#626262; stroke:#313131; stroke-width:.31px;"/><path d="m239.6,48.76h0c.59.54,1.19.85,1.33.7h0c.14-.16-.22-.72-.81-1.26h0c-.59-.54-1.19-.85-1.33-.7h0c-.14.16.22.72.81,1.26Z" style="fill:#626262; stroke:#313131; stroke-width:.31px;"/><path d="m236.5,48.75h0c.59.54,1.19.85,1.33.7h0c.14-.16-.22-.72-.81-1.26h0c-.59-.54-1.19-.85-1.33-.7h0c-.14.16.22.72.81,1.26Z" style="fill:#626262; stroke:#313131; stroke-width:.31px;"/><path d="m246.07,48.8h0c.59.54,1.19.85,1.33.7h0c.14-.16-.22-.72-.81-1.26h0c-.59-.54-1.19-.85-1.33-.7h0c-.14.16.22.72.81,1.26Z" style="fill:#626262; stroke:#313131; stroke-width:.31px;"/><path d="m242.66,48.7h0c.59.54,1.19.85,1.33.7h0c.14-.16-.22-.72-.81-1.26h0c-.59-.54-1.19-.85-1.33-.7h0c-.14.16.22.72.81,1.26Z" style="fill:#626262; stroke:#313131; stroke-width:.31px;"/><path d="m252.49,48.75h0c.59.54,1.19.85,1.33.7h0c.14-.16-.22-.72-.81-1.26h0c-.59-.54-1.19-.85-1.33-.7h0c-.14.16.22.72.81,1.26Z" style="fill:#626262; stroke:#313131; stroke-width:.31px;"/><path d="m249.39,48.73h0c.59.54,1.19.85,1.33.7h0c.14-.16-.22-.72-.81-1.26h0c-.59-.54-1.19-.85-1.33-.7h0c-.14.16.22.72.81,1.26Z" style="fill:#626262; stroke:#313131; stroke-width:.31px;"/><path d="m258.96,48.9h0c.59.54,1.19.85,1.33.7h0c.14-.16-.22-.72-.81-1.26h0c-.59-.54-1.19-.85-1.33-.7h0c-.14.16.22.72.81,1.26Z" style="fill:#626262; stroke:#313131; stroke-width:.31px;"/><path d="m255.55,48.81h0c.59.54,1.19.85,1.33.7h0c.14-.16-.22-.72-.81-1.26h0c-.59-.54-1.19-.85-1.33-.7h0c-.14.16.22.72.81,1.26Z" style="fill:#626262; stroke:#313131; stroke-width:.31px;"/><path d="m188.19,48.55h0c.59.54,1.19.85,1.33.7h0c.14-.16-.22-.72-.81-1.26h0c-.59-.54-1.19-.85-1.33-.7h0c-.14.16.22.72.81,1.26Z" style="fill:#626262; stroke:#313131; stroke-width:.31px;"/><path d="m193.16,49.34h0c.59-.54,1.19-.85,1.33-.7h0c.14.16-.22.72-.81,1.26h0c-.59.54-1.19.85-1.33.7h0c-.14-.16.22-.72.81-1.26Z" style="fill:#626262; stroke:#313131; stroke-width:.31px;"/><path d="m189.74,49.43h0c.59-.54,1.19-.85,1.33-.7h0c.14.16-.22.72-.81,1.26h0c-.59.54-1.19.85-1.33.7h0c-.14-.16.22-.72.81-1.26Z" style="fill:#626262; stroke:#313131; stroke-width:.31px;"/><path d="m199.58,49.38h0c.59-.54,1.19-.85,1.33-.7h0c.14.16-.22.72-.81,1.26h0c-.59.54-1.19.85-1.33.7h0c-.14-.16.22-.72.81-1.26Z" style="fill:#626262; stroke:#313131; stroke-width:.31px;"/><path d="m196.48,49.39h0c.59-.54,1.19-.85,1.33-.7h0c.14.16-.22.72-.81,1.26h0c-.59.54-1.19.85-1.33.7h0c-.14-.16.22-.72.81-1.26Z" style="fill:#626262; stroke:#313131; stroke-width:.31px;"/><path d="m206.05,49.22h0c.59-.54,1.19-.85,1.33-.7h0c.14.16-.22.72-.81,1.26h0c-.59.54-1.19.85-1.33.7h0c-.14-.16.22-.72.81-1.26Z" style="fill:#626262; stroke:#313131; stroke-width:.31px;"/><path d="m202.64,49.31h0c.59-.54,1.19-.85,1.33-.7h0c.14.16-.22.72-.81,1.26h0c-.59.54-1.19.85-1.33.7h0c-.14-.16.22-.72.81-1.26Z" style="fill:#626262; stroke:#313131; stroke-width:.31px;"/><path d="m212.48,49.26h0c.59-.54,1.19-.85,1.33-.7h0c.14.16-.22.72-.81,1.26h0c-.59.54-1.19.85-1.33.7h0c-.14-.16.22-.72.81-1.26Z" style="fill:#626262; stroke:#313131; stroke-width:.31px;"/><path d="m209.38,49.28h0c.59-.54,1.19-.85,1.33-.7h0c.14.16-.22.72-.81,1.26h0c-.59.54-1.19.85-1.33.7h0c-.14-.16.22-.72.81-1.26Z" style="fill:#626262; stroke:#313131; stroke-width:.31px;"/><path d="m218.89,49.2h0c.59-.54,1.19-.85,1.33-.7h0c.14.16-.22.72-.81,1.26h0c-.59.54-1.19.85-1.33.7h0c-.14-.16.22-.72.81-1.26Z" style="fill:#626262; stroke:#313131; stroke-width:.31px;"/><path d="m215.47,49.29h0c.59-.54,1.19-.85,1.33-.7h0c.14.16-.22.72-.81,1.26h0c-.59.54-1.19.85-1.33.7h0c-.14-.16.22-.72.81-1.26Z" style="fill:#626262; stroke:#313131; stroke-width:.31px;"/><path d="m225.31,49.25h0c.59-.54,1.19-.85,1.33-.7h0c.14.16-.22.72-.81,1.26h0c-.59.54-1.19.85-1.33.7h0c-.14-.16.22-.72.81-1.26Z" style="fill:#626262; stroke:#313131; stroke-width:.31px;"/><path d="m222.21,49.26h0c.59-.54,1.19-.85,1.33-.7h0c.14.16-.22.72-.81,1.26h0c-.59.54-1.19.85-1.33.7h0c-.14-.16.22-.72.81-1.26Z" style="fill:#626262; stroke:#313131; stroke-width:.31px;"/><path d="m231.79,49.09h0c.59-.54,1.19-.85,1.33-.7h0c.14.16-.22.72-.81,1.26h0c-.59.54-1.19.85-1.33.7h0c-.14-.16.22-.72.81-1.26Z" style="fill:#626262; stroke:#313131; stroke-width:.31px;"/><path d="m228.37,49.18h0c.59-.54,1.19-.85,1.33-.7h0c.14.16-.22.72-.81,1.26h0c-.59.54-1.19.85-1.33.7h0c-.14-.16.22-.72.81-1.26Z" style="fill:#626262; stroke:#313131; stroke-width:.31px;"/><path d="m238.21,49.14h0c.59-.54,1.19-.85,1.33-.7h0c.14.16-.22.72-.81,1.26h0c-.59.54-1.19.85-1.33.7h0c-.14-.16.22-.72.81-1.26Z" style="fill:#626262; stroke:#313131; stroke-width:.31px;"/><path d="m235.1,49.15h0c.59-.54,1.19-.85,1.33-.7h0c.14.16-.22.72-.81,1.26h0c-.59.54-1.19.85-1.33.7h0c-.14-.16.22-.72.81-1.26Z" style="fill:#626262; stroke:#313131; stroke-width:.31px;"/><path d="m244.68,49.11h0c.59-.54,1.19-.85,1.33-.7h0c.14.16-.22.72-.81,1.26h0c-.59.54-1.19.85-1.33.7h0c-.14-.16.22-.72.81-1.26Z" style="fill:#626262; stroke:#313131; stroke-width:.31px;"/><path d="m241.25,49.2h0c.59-.54,1.19-.85,1.33-.7h0c.14.16-.22.72-.81,1.26h0c-.59.54-1.19.85-1.33.7h0c-.14-.16.22-.72.81-1.26Z" style="fill:#626262; stroke:#313131; stroke-width:.31px;"/><path d="m251.09,49.16h0c.59-.54,1.19-.85,1.33-.7h0c.14.16-.22.72-.81,1.26h0c-.59.54-1.19.85-1.33.7h0c-.14-.16.22-.72.81-1.26Z" style="fill:#626262; stroke:#313131; stroke-width:.31px;"/><path d="m247.99,49.18h0c.59-.54,1.19-.85,1.33-.7h0c.14.16-.22.72-.81,1.26h0c-.59.54-1.19.85-1.33.7h0c-.14-.16.22-.72.81-1.26Z" style="fill:#626262; stroke:#313131; stroke-width:.31px;"/><path d="m257.57,49.01h0c.59-.54,1.19-.85,1.33-.7h0c.14.16-.22.72-.81,1.26h0c-.59.54-1.19.85-1.33.7h0c-.14-.16.22-.72.81-1.26Z" style="fill:#626262; stroke:#313131; stroke-width:.31px;"/><path d="m254.15,49.09h0c.59-.54,1.19-.85,1.33-.7h0c.14.16-.22.72-.81,1.26h0c-.59.54-1.19.85-1.33.7h0c-.14-.16.22-.72.81-1.26Z" style="fill:#626262; stroke:#313131; stroke-width:.31px;"/><path d="m186.8,49.34h0c.59-.54,1.19-.85,1.33-.7h0c.14.16-.22.72-.81,1.26h0c-.59.54-1.19.85-1.33.7h0c-.14-.16.22-.72.81-1.26Z" style="fill:#626262; stroke:#313131; stroke-width:.31px;"/><path d="m194.4,50.97h0c.59.54,1.19.85,1.33.7h0c.14-.16-.22-.72-.81-1.26h0c-.59-.54-1.19-.85-1.33-.7h0c-.14.16.22.72.81,1.26Z" style="fill:#626262; stroke:#313131; stroke-width:.31px;"/><path d="m190.98,50.88h0c.59.54,1.19.85,1.33.7h0c.14-.16-.22-.72-.81-1.26h0c-.59-.54-1.19-.85-1.33-.7h0c-.14.16.22.72.81,1.26Z" style="fill:#626262; stroke:#313131; stroke-width:.31px;"/><path d="m200.82,50.93h0c.59.54,1.19.85,1.33.7h0c.14-.16-.22-.72-.81-1.26h0c-.59-.54-1.19-.85-1.33-.7h0c-.14.16.22.72.81,1.26Z" style="fill:#626262; stroke:#313131; stroke-width:.31px;"/><path d="m197.72,50.91h0c.59.54,1.19.85,1.33.7h0c.14-.16-.22-.72-.81-1.26h0c-.59-.54-1.19-.85-1.33-.7h0c-.14.16.22.72.81,1.26Z" style="fill:#626262; stroke:#313131; stroke-width:.31px;"/><path d="m207.3,51.08h0c.59.54,1.19.85,1.33.7h0c.14-.16-.22-.72-.81-1.26h0c-.59-.54-1.19-.85-1.33-.7h0c-.14.16.22.72.81,1.26Z" style="fill:#626262; stroke:#313131; stroke-width:.31px;"/><path d="m203.88,50.99h0c.59.54,1.19.85,1.33.7h0c.14-.16-.22-.72-.81-1.26h0c-.59-.54-1.19-.85-1.33-.7h0c-.14.16.22.72.81,1.26Z" style="fill:#626262; stroke:#313131; stroke-width:.31px;"/><path d="m213.72,51.04h0c.59.54,1.19.85,1.33.7h0c.14-.16-.22-.72-.81-1.26h0c-.59-.54-1.19-.85-1.33-.7h0c-.14.16.22.72.81,1.26Z" style="fill:#626262; stroke:#313131; stroke-width:.31px;"/><path d="m210.61,51.03h0c.59.54,1.19.85,1.33.7h0c.14-.16-.22-.72-.81-1.26h0c-.59-.54-1.19-.85-1.33-.7h0c-.14.16.22.72.81,1.26Z" style="fill:#626262; stroke:#313131; stroke-width:.31px;"/><path d="m220.13,51.1h0c.59.54,1.19.85,1.33.7h0c.14-.16-.22-.72-.81-1.26h0c-.59-.54-1.19-.85-1.33-.7h0c-.14.16.22.72.81,1.26Z" style="fill:#626262; stroke:#313131; stroke-width:.31px;"/><path d="m216.71,51.01h0c.59.54,1.19.85,1.33.7h0c.14-.16-.22-.72-.81-1.26h0c-.59-.54-1.19-.85-1.33-.7h0c-.14.16.22.72.81,1.26Z" style="fill:#626262; stroke:#313131; stroke-width:.31px;"/><path d="m226.55,51.05h0c.59.54,1.19.85,1.33.7h0c.14-.16-.22-.72-.81-1.26h0c-.59-.54-1.19-.85-1.33-.7h0c-.14.16.22.72.81,1.26Z" style="fill:#626262; stroke:#313131; stroke-width:.31px;"/><path d="m223.45,51.04h0c.59.54,1.19.85,1.33.7h0c.14-.16-.22-.72-.81-1.26h0c-.59-.54-1.19-.85-1.33-.7h0c-.14.16.22.72.81,1.26Z" style="fill:#626262; stroke:#313131; stroke-width:.31px;"/><path d="m233.02,51.21h0c.59.54,1.19.85,1.33.7h0c.14-.16-.22-.72-.81-1.26h0c-.59-.54-1.19-.85-1.33-.7h0c-.14.16.22.72.81,1.26Z" style="fill:#626262; stroke:#313131; stroke-width:.31px;"/><path d="m229.61,51.12h0c.59.54,1.19.85,1.33.7h0c.14-.16-.22-.72-.81-1.26h0c-.59-.54-1.19-.85-1.33-.7h0c-.14.16.22.72.81,1.26Z" style="fill:#626262; stroke:#313131; stroke-width:.31px;"/><path d="m239.45,51.17h0c.59.54,1.19.85,1.33.7h0c.14-.16-.22-.72-.81-1.26h0c-.59-.54-1.19-.85-1.33-.7h0c-.14.16.22.72.81,1.26Z" style="fill:#626262; stroke:#313131; stroke-width:.31px;"/><path d="m236.35,51.15h0c.59.54,1.19.85,1.33.7h0c.14-.16-.22-.72-.81-1.26h0c-.59-.54-1.19-.85-1.33-.7h0c-.14.16.22.72.81,1.26Z" style="fill:#626262; stroke:#313131; stroke-width:.31px;"/><path d="m245.91,51.19h0c.59.54,1.19.85,1.33.7h0c.14-.16-.22-.72-.81-1.26h0c-.59-.54-1.19-.85-1.33-.7h0c-.14.16.22.72.81,1.26Z" style="fill:#626262; stroke:#313131; stroke-width:.31px;"/><path d="m242.5,51.1h0c.59.54,1.19.85,1.33.7h0c.14-.16-.22-.72-.81-1.26h0c-.59-.54-1.19-.85-1.33-.7h0c-.14.16.22.72.81,1.26Z" style="fill:#626262; stroke:#313131; stroke-width:.31px;"/><path d="m252.34,51.14h0c.59.54,1.19.85,1.33.7h0c.14-.16-.22-.72-.81-1.26h0c-.59-.54-1.19-.85-1.33-.7h0c-.14.16.22.72.81,1.26Z" style="fill:#626262; stroke:#313131; stroke-width:.31px;"/><path d="m249.23,51.13h0c.59.54,1.19.85,1.33.7h0c.14-.16-.22-.72-.81-1.26h0c-.59-.54-1.19-.85-1.33-.7h0c-.14.16.22.72.81,1.26Z" style="fill:#626262; stroke:#313131; stroke-width:.31px;"/><path d="m258.81,51.3h0c.59.54,1.19.85,1.33.7h0c.14-.16-.22-.72-.81-1.26h0c-.59-.54-1.19-.85-1.33-.7h0c-.14.16.22.72.81,1.26Z" style="fill:#626262; stroke:#313131; stroke-width:.31px;"/><path d="m255.39,51.21h0c.59.54,1.19.85,1.33.7h0c.14-.16-.22-.72-.81-1.26h0c-.59-.54-1.19-.85-1.33-.7h0c-.14.16.22.72.81,1.26Z" style="fill:#626262; stroke:#313131; stroke-width:.31px;"/><path d="m188.04,50.96h0c.59.54,1.19.85,1.33.7h0c.14-.16-.22-.72-.81-1.26h0c-.59-.54-1.19-.85-1.33-.7h0c-.14.16.22.72.81,1.26Z" style="fill:#626262; stroke:#313131; stroke-width:.31px;"/><path d="m193,51.58h0c.59-.54,1.19-.85,1.33-.7h0c.14.16-.22.72-.81,1.26h0c-.59.54-1.19.85-1.33.7h0c-.14-.16.22-.72.81-1.26Z" style="fill:#626262; stroke:#313131; stroke-width:.31px;"/><path d="m189.59,51.67h0c.59-.54,1.19-.85,1.33-.7h0c.14.16-.22.72-.81,1.26h0c-.59.54-1.19.85-1.33.7h0c-.14-.16.22-.72.81-1.26Z" style="fill:#626262; stroke:#313131; stroke-width:.31px;"/><path d="m199.43,51.62h0c.59-.54,1.19-.85,1.33-.7h0c.14.16-.22.72-.81,1.26h0c-.59.54-1.19.85-1.33.7h0c-.14-.16.22-.72.81-1.26Z" style="fill:#626262; stroke:#313131; stroke-width:.31px;"/><path d="m196.32,51.63h0c.59-.54,1.19-.85,1.33-.7h0c.14.16-.22.72-.81,1.26h0c-.59.54-1.19.85-1.33.7h0c-.14-.16.22-.72.81-1.26Z" style="fill:#626262; stroke:#313131; stroke-width:.31px;"/><path d="m205.9,51.46h0c.59-.54,1.19-.85,1.33-.7h0c.14.16-.22.72-.81,1.26h0c-.59.54-1.19.85-1.33.7h0c-.14-.16.22-.72.81-1.26Z" style="fill:#626262; stroke:#313131; stroke-width:.31px;"/><path d="m202.49,51.56h0c.59-.54,1.19-.85,1.33-.7h0c.14.16-.22.72-.81,1.26h0c-.59.54-1.19.85-1.33.7h0c-.14-.16.22-.72.81-1.26Z" style="fill:#626262; stroke:#313131; stroke-width:.31px;"/><path d="m212.32,51.51h0c.59-.54,1.19-.85,1.33-.7h0c.14.16-.22.72-.81,1.26h0c-.59.54-1.19.85-1.33.7h0c-.14-.16.22-.72.81-1.26Z" style="fill:#626262; stroke:#313131; stroke-width:.31px;"/><path d="m209.22,51.53h0c.59-.54,1.19-.85,1.33-.7h0c.14.16-.22.72-.81,1.26h0c-.59.54-1.19.85-1.33.7h0c-.14-.16.22-.72.81-1.26Z" style="fill:#626262; stroke:#313131; stroke-width:.31px;"/><path d="m218.73,51.45h0c.59-.54,1.19-.85,1.33-.7h0c.14.16-.22.72-.81,1.26h0c-.59.54-1.19.85-1.33.7h0c-.14-.16.22-.72.81-1.26Z" style="fill:#626262; stroke:#313131; stroke-width:.31px;"/><path d="m215.32,51.54h0c.59-.54,1.19-.85,1.33-.7h0c.14.16-.22.72-.81,1.26h0c-.59.54-1.19.85-1.33.7h0c-.14-.16.22-.72.81-1.26Z" style="fill:#626262; stroke:#313131; stroke-width:.31px;"/><path d="m225.16,51.5h0c.59-.54,1.19-.85,1.33-.7h0c.14.16-.22.72-.81,1.26h0c-.59.54-1.19.85-1.33.7h0c-.14-.16.22-.72.81-1.26Z" style="fill:#626262; stroke:#313131; stroke-width:.31px;"/><path d="m222.05,51.51h0c.59-.54,1.19-.85,1.33-.7h0c.14.16-.22.72-.81,1.26h0c-.59.54-1.19.85-1.33.7h0c-.14-.16.22-.72.81-1.26Z" style="fill:#626262; stroke:#313131; stroke-width:.31px;"/><path d="m231.63,51.34h0c.59-.54,1.19-.85,1.33-.7h0c.14.16-.22.72-.81,1.26h0c-.59.54-1.19.85-1.33.7h0c-.14-.16.22-.72.81-1.26Z" style="fill:#626262; stroke:#313131; stroke-width:.31px;"/><path d="m228.22,51.43h0c.59-.54,1.19-.85,1.33-.7h0c.14.16-.22.72-.81,1.26h0c-.59.54-1.19.85-1.33.7h0c-.14-.16.22-.72.81-1.26Z" style="fill:#626262; stroke:#313131; stroke-width:.31px;"/><path d="m238.06,51.38h0c.59-.54,1.19-.85,1.33-.7h0c.14.16-.22.72-.81,1.26h0c-.59.54-1.19.85-1.33.7h0c-.14-.16.22-.72.81-1.26Z" style="fill:#626262; stroke:#313131; stroke-width:.31px;"/><path d="m234.95,51.39h0c.59-.54,1.19-.85,1.33-.7h0c.14.16-.22.72-.81,1.26h0c-.59.54-1.19.85-1.33.7h0c-.14-.16.22-.72.81-1.26Z" style="fill:#626262; stroke:#313131; stroke-width:.31px;"/><path d="m244.51,51.36h0c.59-.54,1.19-.85,1.33-.7h0c.14.16-.22.72-.81,1.26h0c-.59.54-1.19.85-1.33.7h0c-.14-.16.22-.72.81-1.26Z" style="fill:#626262; stroke:#313131; stroke-width:.31px;"/><path d="m241.1,51.45h0c.59-.54,1.19-.85,1.33-.7h0c.14.16-.22.72-.81,1.26h0c-.59.54-1.19.85-1.33.7h0c-.14-.16.22-.72.81-1.26Z" style="fill:#626262; stroke:#313131; stroke-width:.31px;"/><path d="m250.94,51.41h0c.59-.54,1.19-.85,1.33-.7h0c.14.16-.22.72-.81,1.26h0c-.59.54-1.19.85-1.33.7h0c-.14-.16.22-.72.81-1.26Z" style="fill:#626262; stroke:#313131; stroke-width:.31px;"/><path d="m247.84,51.42h0c.59-.54,1.19-.85,1.33-.7h0c.14.16-.22.72-.81,1.26h0c-.59.54-1.19.85-1.33.7h0c-.14-.16.22-.72.81-1.26Z" style="fill:#626262; stroke:#313131; stroke-width:.31px;"/><path d="m257.41,51.25h0c.59-.54,1.19-.85,1.33-.7h0c.14.16-.22.72-.81,1.26h0c-.59.54-1.19.85-1.33.7h0c-.14-.16.22-.72.81-1.26Z" style="fill:#626262; stroke:#313131; stroke-width:.31px;"/><path d="m254,51.34h0c.59-.54,1.19-.85,1.33-.7h0c.14.16-.22.72-.81,1.26h0c-.59.54-1.19.85-1.33.7h0c-.14-.16.22-.72.81-1.26Z" style="fill:#626262; stroke:#313131; stroke-width:.31px;"/><path d="m186.65,51.6h0c.59-.54,1.19-.85,1.33-.7h0c.14.16-.22.72-.81,1.26h0c-.59.54-1.19.85-1.33.7h0c-.14-.16.22-.72.81-1.26Z" style="fill:#626262; stroke:#313131; stroke-width:.31px;"/><path d="m194.71,53.37h0c.59.54,1.19.85,1.33.7h0c.14-.16-.22-.72-.81-1.26h0c-.59-.54-1.19-.85-1.33-.7h0c-.14.16.22.72.81,1.26Z" style="fill:#626262; stroke:#313131; stroke-width:.31px;"/><path d="m191.29,53.28h0c.59.54,1.19.85,1.33.7h0c.14-.16-.22-.72-.81-1.26h0c-.59-.54-1.19-.85-1.33-.7h0c-.14.16.22.72.81,1.26Z" style="fill:#626262; stroke:#313131; stroke-width:.31px;"/><path d="m201.13,53.33h0c.59.54,1.19.85,1.33.7h0c.14-.16-.22-.72-.81-1.26h0c-.59-.54-1.19-.85-1.33-.7h0c-.14.16.22.72.81,1.26Z" style="fill:#626262; stroke:#313131; stroke-width:.31px;"/><path d="m198.03,53.31h0c.59.54,1.19.85,1.33.7h0c.14-.16-.22-.72-.81-1.26h0c-.59-.54-1.19-.85-1.33-.7h0c-.14.16.22.72.81,1.26Z" style="fill:#626262; stroke:#313131; stroke-width:.31px;"/><path d="m207.61,53.48h0c.59.54,1.19.85,1.33.7h0c.14-.16-.22-.72-.81-1.26h0c-.59-.54-1.19-.85-1.33-.7h0c-.14.16.22.72.81,1.26Z" style="fill:#626262; stroke:#313131; stroke-width:.31px;"/><path d="m204.19,53.39h0c.59.54,1.19.85,1.33.7h0c.14-.16-.22-.72-.81-1.26h0c-.59-.54-1.19-.85-1.33-.7h0c-.14.16.22.72.81,1.26Z" style="fill:#626262; stroke:#313131; stroke-width:.31px;"/><path d="m214.03,53.44h0c.59.54,1.19.85,1.33.7h0c.14-.16-.22-.72-.81-1.26h0c-.59-.54-1.19-.85-1.33-.7h0c-.14.16.22.72.81,1.26Z" style="fill:#626262; stroke:#313131; stroke-width:.31px;"/><path d="m210.92,53.42h0c.59.54,1.19.85,1.33.7h0c.14-.16-.22-.72-.81-1.26h0c-.59-.54-1.19-.85-1.33-.7h0c-.14.16.22.72.81,1.26Z" style="fill:#626262; stroke:#313131; stroke-width:.31px;"/><path d="m220.44,53.5h0c.59.54,1.19.85,1.33.7h0c.14-.16-.22-.72-.81-1.26h0c-.59-.54-1.19-.85-1.33-.7h0c-.14.16.22.72.81,1.26Z" style="fill:#626262; stroke:#313131; stroke-width:.31px;"/><path d="m217.03,53.41h0c.59.54,1.19.85,1.33.7h0c.14-.16-.22-.72-.81-1.26h0c-.59-.54-1.19-.85-1.33-.7h0c-.14.16.22.72.81,1.26Z" style="fill:#626262; stroke:#313131; stroke-width:.31px;"/><path d="m226.87,53.45h0c.59.54,1.19.85,1.33.7h0c.14-.16-.22-.72-.81-1.26h0c-.59-.54-1.19-.85-1.33-.7h0c-.14.16.22.72.81,1.26Z" style="fill:#626262; stroke:#313131; stroke-width:.31px;"/><path d="m223.76,53.44h0c.59.54,1.19.85,1.33.7h0c.14-.16-.22-.72-.81-1.26h0c-.59-.54-1.19-.85-1.33-.7h0c-.14.16.22.72.81,1.26Z" style="fill:#626262; stroke:#313131; stroke-width:.31px;"/><path d="m233.34,53.61h0c.59.54,1.19.85,1.33.7h0c.14-.16-.22-.72-.81-1.26h0c-.59-.54-1.19-.85-1.33-.7h0c-.14.16.22.72.81,1.26Z" style="fill:#626262; stroke:#313131; stroke-width:.31px;"/><path d="m229.92,53.52h0c.59.54,1.19.85,1.33.7h0c.14-.16-.22-.72-.81-1.26h0c-.59-.54-1.19-.85-1.33-.7h0c-.14.16.22.72.81,1.26Z" style="fill:#626262; stroke:#313131; stroke-width:.31px;"/><path d="m239.76,53.57h0c.59.54,1.19.85,1.33.7h0c.14-.16-.22-.72-.81-1.26h0c-.59-.54-1.19-.85-1.33-.7h0c-.14.16.22.72.81,1.26Z" style="fill:#626262; stroke:#313131; stroke-width:.31px;"/><path d="m236.65,53.56h0c.59.54,1.19.85,1.33.7h0c.14-.16-.22-.72-.81-1.26h0c-.59-.54-1.19-.85-1.33-.7h0c-.14.16.22.72.81,1.26Z" style="fill:#626262; stroke:#313131; stroke-width:.31px;"/><path d="m246.22,53.59h0c.59.54,1.19.85,1.33.7h0c.14-.16-.22-.72-.81-1.26h0c-.59-.54-1.19-.85-1.33-.7h0c-.14.16.22.72.81,1.26Z" style="fill:#626262; stroke:#313131; stroke-width:.31px;"/><path d="m242.81,53.5h0c.59.54,1.19.85,1.33.7h0c.14-.16-.22-.72-.81-1.26h0c-.59-.54-1.19-.85-1.33-.7h0c-.14.16.22.72.81,1.26Z" style="fill:#626262; stroke:#313131; stroke-width:.31px;"/><path d="m252.65,53.54h0c.59.54,1.19.85,1.33.7h0c.14-.16-.22-.72-.81-1.26h0c-.59-.54-1.19-.85-1.33-.7h0c-.14.16.22.72.81,1.26Z" style="fill:#626262; stroke:#313131; stroke-width:.31px;"/><path d="m249.54,53.53h0c.59.54,1.19.85,1.33.7h0c.14-.16-.22-.72-.81-1.26h0c-.59-.54-1.19-.85-1.33-.7h0c-.14.16.22.72.81,1.26Z" style="fill:#626262; stroke:#313131; stroke-width:.31px;"/><path d="m259.12,53.7h0c.59.54,1.19.85,1.33.7h0c.14-.16-.22-.72-.81-1.26h0c-.59-.54-1.19-.85-1.33-.7h0c-.14.16.22.72.81,1.26Z" style="fill:#626262; stroke:#313131; stroke-width:.31px;"/><path d="m255.7,53.61h0c.59.54,1.19.85,1.33.7h0c.14-.16-.22-.72-.81-1.26h0c-.59-.54-1.19-.85-1.33-.7h0c-.14.16.22.72.81,1.26Z" style="fill:#626262; stroke:#313131; stroke-width:.31px;"/><path d="m188.35,53.36h0c.59.54,1.19.85,1.33.7h0c.14-.16-.22-.72-.81-1.26h0c-.59-.54-1.19-.85-1.33-.7h0c-.14.16.22.72.81,1.26Z" style="fill:#626262; stroke:#313131; stroke-width:.31px;"/><path d="m193.24,54.52h0c.59-.54,1.19-.85,1.33-.7h0c.14.16-.22.72-.81,1.26h0c-.59.54-1.19.85-1.33.7h0c-.14-.16.22-.72.81-1.26Z" style="fill:#626262; stroke:#313131; stroke-width:.31px;"/><path d="m189.83,54.61h0c.59-.54,1.19-.85,1.33-.7h0c.14.16-.22.72-.81,1.26h0c-.59.54-1.19.85-1.33.7h0c-.14-.16.22-.72.81-1.26Z" style="fill:#626262; stroke:#313131; stroke-width:.31px;"/><path d="m199.67,54.56h0c.59-.54,1.19-.85,1.33-.7h0c.14.16-.22.72-.81,1.26h0c-.59.54-1.19.85-1.33.7h0c-.14-.16.22-.72.81-1.26Z" style="fill:#626262; stroke:#313131; stroke-width:.31px;"/><path d="m196.55,54.58h0c.59-.54,1.19-.85,1.33-.7h0c.14.16-.22.72-.81,1.26h0c-.59.54-1.19.85-1.33.7h0c-.14-.16.22-.72.81-1.26Z" style="fill:#626262; stroke:#313131; stroke-width:.31px;"/><path d="m206.13,54.41h0c.59-.54,1.19-.85,1.33-.7h0c.14.16-.22.72-.81,1.26h0c-.59.54-1.19.85-1.33.7h0c-.14-.16.22-.72.81-1.26Z" style="fill:#626262; stroke:#313131; stroke-width:.31px;"/><path d="m202.71,54.5h0c.59-.54,1.19-.85,1.33-.7h0c.14.16-.22.72-.81,1.26h0c-.59.54-1.19.85-1.33.7h0c-.14-.16.22-.72.81-1.26Z" style="fill:#626262; stroke:#313131; stroke-width:.31px;"/><path d="m212.55,54.46h0c.59-.54,1.19-.85,1.33-.7h0c.14.16-.22.72-.81,1.26h0c-.59.54-1.19.85-1.33.7h0c-.14-.16.22-.72.81-1.26Z" style="fill:#626262; stroke:#313131; stroke-width:.31px;"/><path d="m209.45,54.47h0c.59-.54,1.19-.85,1.33-.7h0c.14.16-.22.72-.81,1.26h0c-.59.54-1.19.85-1.33.7h0c-.14-.16.22-.72.81-1.26Z" style="fill:#626262; stroke:#313131; stroke-width:.31px;"/><path d="m218.97,54.39h0c.59-.54,1.19-.85,1.33-.7h0c.14.16-.22.72-.81,1.26h0c-.59.54-1.19.85-1.33.7h0c-.14-.16.22-.72.81-1.26Z" style="fill:#626262; stroke:#313131; stroke-width:.31px;"/><path d="m215.55,54.48h0c.59-.54,1.19-.85,1.33-.7h0c.14.16-.22.72-.81,1.26h0c-.59.54-1.19.85-1.33.7h0c-.14-.16.22-.72.81-1.26Z" style="fill:#626262; stroke:#313131; stroke-width:.31px;"/><path d="m225.39,54.43h0c.59-.54,1.19-.85,1.33-.7h0c.14.16-.22.72-.81,1.26h0c-.59.54-1.19.85-1.33.7h0c-.14-.16.22-.72.81-1.26Z" style="fill:#626262; stroke:#313131; stroke-width:.31px;"/><path d="m222.29,54.45h0c.59-.54,1.19-.85,1.33-.7h0c.14.16-.22.72-.81,1.26h0c-.59.54-1.19.85-1.33.7h0c-.14-.16.22-.72.81-1.26Z" style="fill:#626262; stroke:#313131; stroke-width:.31px;"/><path d="m231.87,54.28h0c.59-.54,1.19-.85,1.33-.7h0c.14.16-.22.72-.81,1.26h0c-.59.54-1.19.85-1.33.7h0c-.14-.16.22-.72.81-1.26Z" style="fill:#626262; stroke:#313131; stroke-width:.31px;"/><path d="m228.45,54.38h0c.59-.54,1.19-.85,1.33-.7h0c.14.16-.22.72-.81,1.26h0c-.59.54-1.19.85-1.33.7h0c-.14-.16.22-.72.81-1.26Z" style="fill:#626262; stroke:#313131; stroke-width:.31px;"/><path d="m238.29,54.33h0c.59-.54,1.19-.85,1.33-.7h0c.14.16-.22.72-.81,1.26h0c-.59.54-1.19.85-1.33.7h0c-.14-.16.22-.72.81-1.26Z" style="fill:#626262; stroke:#313131; stroke-width:.31px;"/><path d="m235.18,54.34h0c.59-.54,1.19-.85,1.33-.7h0c.14.16-.22.72-.81,1.26h0c-.59.54-1.19.85-1.33.7h0c-.14-.16.22-.72.81-1.26Z" style="fill:#626262; stroke:#313131; stroke-width:.31px;"/><path d="m244.75,54.3h0c.59-.54,1.19-.85,1.33-.7h0c.14.16-.22.72-.81,1.26h0c-.59.54-1.19.85-1.33.7h0c-.14-.16.22-.72.81-1.26Z" style="fill:#626262; stroke:#313131; stroke-width:.31px;"/><path d="m241.33,54.39h0c.59-.54,1.19-.85,1.33-.7h0c.14.16-.22.72-.81,1.26h0c-.59.54-1.19.85-1.33.7h0c-.14-.16.22-.72.81-1.26Z" style="fill:#626262; stroke:#313131; stroke-width:.31px;"/><path d="m251.17,54.34h0c.59-.54,1.19-.85,1.33-.7h0c.14.16-.22.72-.81,1.26h0c-.59.54-1.19.85-1.33.7h0c-.14-.16.22-.72.81-1.26Z" style="fill:#626262; stroke:#313131; stroke-width:.31px;"/><path d="m248.07,54.36h0c.59-.54,1.19-.85,1.33-.7h0c.14.16-.22.72-.81,1.26h0c-.59.54-1.19.85-1.33.7h0c-.14-.16.22-.72.81-1.26Z" style="fill:#626262; stroke:#313131; stroke-width:.31px;"/><path d="m257.65,54.19h0c.59-.54,1.19-.85,1.33-.7h0c.14.16-.22.72-.81,1.26h0c-.59.54-1.19.85-1.33.7h0c-.14-.16.22-.72.81-1.26Z" style="fill:#626262; stroke:#313131; stroke-width:.31px;"/><path d="m254.23,54.29h0c.59-.54,1.19-.85,1.33-.7h0c.14.16-.22.72-.81,1.26h0c-.59.54-1.19.85-1.33.7h0c-.14-.16.22-.72.81-1.26Z" style="fill:#626262; stroke:#313131; stroke-width:.31px;"/><path d="m186.88,54.54h0c.59-.54,1.19-.85,1.33-.7h0c.14.16-.22.72-.81,1.26h0c-.59.54-1.19.85-1.33.7h0c-.14-.16.22-.72.81-1.26Z" style="fill:#626262; stroke:#313131; stroke-width:.31px;"/><path d="m194.79,56.16h0c.59.54,1.19.85,1.33.7h0c.14-.16-.22-.72-.81-1.26h0c-.59-.54-1.19-.85-1.33-.7h0c-.14.16.22.72.81,1.26Z" style="fill:#626262; stroke:#313131; stroke-width:.31px;"/><path d="m191.37,56.07h0c.59.54,1.19.85,1.33.7h0c.14-.16-.22-.72-.81-1.26h0c-.59-.54-1.19-.85-1.33-.7h0c-.14.16.22.72.81,1.26Z" style="fill:#626262; stroke:#313131; stroke-width:.31px;"/><path d="m201.21,56.11h0c.59.54,1.19.85,1.33.7h0c.14-.16-.22-.72-.81-1.26h0c-.59-.54-1.19-.85-1.33-.7h0c-.14.16.22.72.81,1.26Z" style="fill:#626262; stroke:#313131; stroke-width:.31px;"/><path d="m198.11,56.1h0c.59.54,1.19.85,1.33.7h0c.14-.16-.22-.72-.81-1.26h0c-.59-.54-1.19-.85-1.33-.7h0c-.14.16.22.72.81,1.26Z" style="fill:#626262; stroke:#313131; stroke-width:.31px;"/><path d="m207.68,56.27h0c.59.54,1.19.85,1.33.7h0c.14-.16-.22-.72-.81-1.26h0c-.59-.54-1.19-.85-1.33-.7h0c-.14.16.22.72.81,1.26Z" style="fill:#626262; stroke:#313131; stroke-width:.31px;"/><path d="m204.26,56.18h0c.59.54,1.19.85,1.33.7h0c.14-.16-.22-.72-.81-1.26h0c-.59-.54-1.19-.85-1.33-.7h0c-.14.16.22.72.81,1.26Z" style="fill:#626262; stroke:#313131; stroke-width:.31px;"/><path d="m214.11,56.23h0c.59.54,1.19.85,1.33.7h0c.14-.16-.22-.72-.81-1.26h0c-.59-.54-1.19-.85-1.33-.7h0c-.14.16.22.72.81,1.26Z" style="fill:#626262; stroke:#313131; stroke-width:.31px;"/><path d="m210.99,56.21h0c.59.54,1.19.85,1.33.7h0c.14-.16-.22-.72-.81-1.26h0c-.59-.54-1.19-.85-1.33-.7h0c-.14.16.22.72.81,1.26Z" style="fill:#626262; stroke:#313131; stroke-width:.31px;"/><path d="m220.52,56.29h0c.59.54,1.19.85,1.33.7h0c.14-.16-.22-.72-.81-1.26h0c-.59-.54-1.19-.85-1.33-.7h0c-.14.16.22.72.81,1.26Z" style="fill:#626262; stroke:#313131; stroke-width:.31px;"/><path d="m217.1,56.2h0c.59.54,1.19.85,1.33.7h0c.14-.16-.22-.72-.81-1.26h0c-.59-.54-1.19-.85-1.33-.7h0c-.14.16.22.72.81,1.26Z" style="fill:#626262; stroke:#313131; stroke-width:.31px;"/><path d="m226.94,56.25h0c.59.54,1.19.85,1.33.7h0c.14-.16-.22-.72-.81-1.26h0c-.59-.54-1.19-.85-1.33-.7h0c-.14.16.22.72.81,1.26Z" style="fill:#626262; stroke:#313131; stroke-width:.31px;"/><path d="m223.84,56.23h0c.59.54,1.19.85,1.33.7h0c.14-.16-.22-.72-.81-1.26h0c-.59-.54-1.19-.85-1.33-.7h0c-.14.16.22.72.81,1.26Z" style="fill:#626262; stroke:#313131; stroke-width:.31px;"/><path d="m233.42,56.4h0c.59.54,1.19.85,1.33.7h0c.14-.16-.22-.72-.81-1.26h0c-.59-.54-1.19-.85-1.33-.7h0c-.14.16.22.72.81,1.26Z" style="fill:#626262; stroke:#313131; stroke-width:.31px;"/><path d="m230,56.31h0c.59.54,1.19.85,1.33.7h0c.14-.16-.22-.72-.81-1.26h0c-.59-.54-1.19-.85-1.33-.7h0c-.14.16.22.72.81,1.26Z" style="fill:#626262; stroke:#313131; stroke-width:.31px;"/><path d="m239.84,56.35h0c.59.54,1.19.85,1.33.7h0c.14-.16-.22-.72-.81-1.26h0c-.59-.54-1.19-.85-1.33-.7h0c-.14.16.22.72.81,1.26Z" style="fill:#626262; stroke:#313131; stroke-width:.31px;"/><path d="m236.73,56.34h0c.59.54,1.19.85,1.33.7h0c.14-.16-.22-.72-.81-1.26h0c-.59-.54-1.19-.85-1.33-.7h0c-.14.16.22.72.81,1.26Z" style="fill:#626262; stroke:#313131; stroke-width:.31px;"/><path d="m246.3,56.38h0c.59.54,1.19.85,1.33.7h0c.14-.16-.22-.72-.81-1.26h0c-.59-.54-1.19-.85-1.33-.7h0c-.14.16.22.72.81,1.26Z" style="fill:#626262; stroke:#313131; stroke-width:.31px;"/><path d="m242.88,56.29h0c.59.54,1.19.85,1.33.7h0c.14-.16-.22-.72-.81-1.26h0c-.59-.54-1.19-.85-1.33-.7h0c-.14.16.22.72.81,1.26Z" style="fill:#626262; stroke:#313131; stroke-width:.31px;"/><path d="m252.72,56.34h0c.59.54,1.19.85,1.33.7h0c.14-.16-.22-.72-.81-1.26h0c-.59-.54-1.19-.85-1.33-.7h0c-.14.16.22.72.81,1.26Z" style="fill:#626262; stroke:#313131; stroke-width:.31px;"/><path d="m249.62,56.32h0c.59.54,1.19.85,1.33.7h0c.14-.16-.22-.72-.81-1.26h0c-.59-.54-1.19-.85-1.33-.7h0c-.14.16.22.72.81,1.26Z" style="fill:#626262; stroke:#313131; stroke-width:.31px;"/><path d="m259.2,56.49h0c.59.54,1.19.85,1.33.7h0c.14-.16-.22-.72-.81-1.26h0c-.59-.54-1.19-.85-1.33-.7h0c-.14.16.22.72.81,1.26Z" style="fill:#626262; stroke:#313131; stroke-width:.31px;"/><path d="m255.78,56.4h0c.59.54,1.19.85,1.33.7h0c.14-.16-.22-.72-.81-1.26h0c-.59-.54-1.19-.85-1.33-.7h0c-.14.16.22.72.81,1.26h0Z" style="fill:#626262; stroke:#313131; stroke-width:.31px;"/><path d="m188.43,56.15h0c.59.54,1.19.85,1.33.7h0c.14-.16-.22-.72-.81-1.26h0c-.59-.54-1.19-.85-1.33-.7h0c-.14.16.22.72.81,1.26Z" style="fill:#626262; stroke:#313131; stroke-width:.31px;"/><path d="m193.62,56.84h0c.59-.54,1.19-.85,1.33-.7h0c.14.16-.22.72-.81,1.26h0c-.59.54-1.19.85-1.33.7h0c-.14-.16.22-.72.81-1.26Z" style="fill:#626262; stroke:#313131; stroke-width:.31px;"/><path d="m190.21,56.94h0c.59-.54,1.19-.85,1.33-.7h0c.14.16-.22.72-.81,1.26h0c-.59.54-1.19.85-1.33.7h0c-.14-.16.22-.72.81-1.26Z" style="fill:#626262; stroke:#313131; stroke-width:.31px;"/><path d="m200.04,56.89h0c.59-.54,1.19-.85,1.33-.7h0c.14.16-.22.72-.81,1.26h0c-.59.54-1.19.85-1.33.7h0c-.14-.16.22-.72.81-1.26Z" style="fill:#626262; stroke:#313131; stroke-width:.31px;"/><path d="m196.94,56.91h0c.59-.54,1.19-.85,1.33-.7h0c.14.16-.22.72-.81,1.26h0c-.59.54-1.19.85-1.33.7h0c-.14-.16.22-.72.81-1.26Z" style="fill:#626262; stroke:#313131; stroke-width:.31px;"/><path d="m206.52,56.74h0c.59-.54,1.19-.85,1.33-.7h0c.14.16-.22.72-.81,1.26h0c-.59.54-1.19.85-1.33.7h0c-.14-.16.22-.72.81-1.26Z" style="fill:#626262; stroke:#313131; stroke-width:.31px;"/><path d="m203.1,56.83h0c.59-.54,1.19-.85,1.33-.7h0c.14.16-.22.72-.81,1.26h0c-.59.54-1.19.85-1.33.7h0c-.14-.16.22-.72.81-1.26Z" style="fill:#626262; stroke:#313131; stroke-width:.31px;"/><path d="m212.94,56.78h0c.59-.54,1.19-.85,1.33-.7h0c.14.16-.22.72-.81,1.26h0c-.59.54-1.19.85-1.33.7h0c-.14-.16.22-.72.81-1.26Z" style="fill:#626262; stroke:#313131; stroke-width:.31px;"/><path d="m209.84,56.79h0c.59-.54,1.19-.85,1.33-.7h0c.14.16-.22.72-.81,1.26h0c-.59.54-1.19.85-1.33.7h0c-.14-.16.22-.72.81-1.26Z" style="fill:#626262; stroke:#313131; stroke-width:.31px;"/><path d="m219.36,56.71h0c.59-.54,1.19-.85,1.33-.7h0c.14.16-.22.72-.81,1.26h0c-.59.54-1.19.85-1.33.7h0c-.14-.16.22-.72.81-1.26Z" style="fill:#626262; stroke:#313131; stroke-width:.31px;"/><path d="m215.94,56.81h0c.59-.54,1.19-.85,1.33-.7h0c.14.16-.22.72-.81,1.26h0c-.59.54-1.19.85-1.33.7h0c-.14-.16.22-.72.81-1.26Z" style="fill:#626262; stroke:#313131; stroke-width:.31px;"/><path d="m225.79,56.76h0c.59-.54,1.19-.85,1.33-.7h0c.14.16-.22.72-.81,1.26h0c-.59.54-1.19.85-1.33.7h0c-.14-.16.22-.72.81-1.26Z" style="fill:#626262; stroke:#313131; stroke-width:.31px;"/><path d="m222.67,56.77h0c.59-.54,1.19-.85,1.33-.7h0c.14.16-.22.72-.81,1.26h0c-.59.54-1.19.85-1.33.7h0c-.14-.16.22-.72.81-1.26Z" style="fill:#626262; stroke:#313131; stroke-width:.31px;"/><path d="m232.25,56.6h0c.59-.54,1.19-.85,1.33-.7h0c.14.16-.22.72-.81,1.26h0c-.59.54-1.19.85-1.33.7h0c-.14-.16.22-.72.81-1.26Z" style="fill:#626262; stroke:#313131; stroke-width:.31px;"/><path d="m228.83,56.69h0c.59-.54,1.19-.85,1.33-.7h0c.14.16-.22.72-.81,1.26h0c-.59.54-1.19.85-1.33.7h0c-.14-.16.22-.72.81-1.26Z" style="fill:#626262; stroke:#313131; stroke-width:.31px;"/><path d="m238.67,56.65h0c.59-.54,1.19-.85,1.33-.7h0c.14.16-.22.72-.81,1.26h0c-.59.54-1.19.85-1.33.7h0c-.14-.16.22-.72.81-1.26Z" style="fill:#626262; stroke:#313131; stroke-width:.31px;"/><path d="m235.57,56.67h0c.59-.54,1.19-.85,1.33-.7h0c.14.16-.22.72-.81,1.26h0c-.59.54-1.19.85-1.33.7h0c-.14-.16.22-.72.81-1.26Z" style="fill:#626262; stroke:#313131; stroke-width:.31px;"/><path d="m245.14,56.62h0c.59-.54,1.19-.85,1.33-.7h0c.14.16-.22.72-.81,1.26h0c-.59.54-1.19.85-1.33.7h0c-.14-.16.22-.72.81-1.26Z" style="fill:#626262; stroke:#313131; stroke-width:.31px;"/><path d="m241.72,56.72h0c.59-.54,1.19-.85,1.33-.7h0c.14.16-.22.72-.81,1.26h0c-.59.54-1.19.85-1.33.7h0c-.14-.16.22-.72.81-1.26Z" style="fill:#626262; stroke:#313131; stroke-width:.31px;"/><path d="m251.57,56.67h0c.59-.54,1.19-.85,1.33-.7h0c.14.16-.22.72-.81,1.26h0c-.59.54-1.19.85-1.33.7h0c-.14-.16.22-.72.81-1.26Z" style="fill:#626262; stroke:#313131; stroke-width:.31px;"/><path d="m248.45,56.68h0c.59-.54,1.19-.85,1.33-.7h0c.14.16-.22.72-.81,1.26h0c-.59.54-1.19.85-1.33.7h0c-.14-.16.22-.72.81-1.26Z" style="fill:#626262; stroke:#313131; stroke-width:.31px;"/><path d="m258.03,56.51h0c.59-.54,1.19-.85,1.33-.7h0c.14.16-.22.72-.81,1.26h0c-.59.54-1.19.85-1.33.7h0c-.14-.16.22-.72.81-1.26Z" style="fill:#626262; stroke:#313131; stroke-width:.31px;"/><path d="m254.61,56.6h0c.59-.54,1.19-.85,1.33-.7h0c.14.16-.22.72-.81,1.26h0c-.59.54-1.19.85-1.33.7h0c-.14-.16.22-.72.81-1.26Z" style="fill:#626262; stroke:#313131; stroke-width:.31px;"/><path d="m187.26,56.86h0c.59-.54,1.19-.85,1.33-.7h0c.14.16-.22.72-.81,1.26h0c-.59.54-1.19.85-1.33.7h0c-.14-.16.22-.72.81-1.26Z" style="fill:#626262; stroke:#313131; stroke-width:.31px;"/><path d="m195.25,58.56h0c.59.54,1.19.85,1.33.7h0c.14-.16-.22-.72-.81-1.26h0c-.59-.54-1.19-.85-1.33-.7h0c-.14.16.22.72.81,1.26Z" style="fill:#626262; stroke:#313131; stroke-width:.31px;"/><path d="m191.83,58.47h0c.59.54,1.19.85,1.33.7h0c.14-.16-.22-.72-.81-1.26h0c-.59-.54-1.19-.85-1.33-.7h0c-.14.16.22.72.81,1.26Z" style="fill:#626262; stroke:#313131; stroke-width:.31px;"/><path d="m201.67,58.51h0c.59.54,1.19.85,1.33.7h0c.14-.16-.22-.72-.81-1.26h0c-.59-.54-1.19-.85-1.33-.7h0c-.14.16.22.72.81,1.26Z" style="fill:#626262; stroke:#313131; stroke-width:.31px;"/><path d="m198.57,58.5h0c.59.54,1.19.85,1.33.7h0c.14-.16-.22-.72-.81-1.26h0c-.59-.54-1.19-.85-1.33-.7h0c-.14.16.22.72.81,1.26Z" style="fill:#626262; stroke:#313131; stroke-width:.31px;"/><path d="m208.14,58.67h0c.59.54,1.19.85,1.33.7h0c.14-.16-.22-.72-.81-1.26h0c-.59-.54-1.19-.85-1.33-.7h0c-.14.16.22.72.81,1.26Z" style="fill:#626262; stroke:#313131; stroke-width:.31px;"/><path d="m204.73,58.58h0c.59.54,1.19.85,1.33.7h0c.14-.16-.22-.72-.81-1.26h0c-.59-.54-1.19-.85-1.33-.7h0c-.14.16.22.72.81,1.26Z" style="fill:#626262; stroke:#313131; stroke-width:.31px;"/><path d="m214.57,58.63h0c.59.54,1.19.85,1.33.7h0c.14-.16-.22-.72-.81-1.26h0c-.59-.54-1.19-.85-1.33-.7h0c-.14.16.22.72.81,1.26Z" style="fill:#626262; stroke:#313131; stroke-width:.31px;"/><path d="m211.47,58.61h0c.59.54,1.19.85,1.33.7h0c.14-.16-.22-.72-.81-1.26h0c-.59-.54-1.19-.85-1.33-.7h0c-.14.16.22.72.81,1.26Z" style="fill:#626262; stroke:#313131; stroke-width:.31px;"/><path d="m220.98,58.7h0c.59.54,1.19.85,1.33.7h0c.14-.16-.22-.72-.81-1.26h0c-.59-.54-1.19-.85-1.33-.7h0c-.14.16.22.72.81,1.26Z" style="fill:#626262; stroke:#313131; stroke-width:.31px;"/><path d="m217.57,58.6h0c.59.54,1.19.85,1.33.7h0c.14-.16-.22-.72-.81-1.26h0c-.59-.54-1.19-.85-1.33-.7h0c-.14.16.22.72.81,1.26Z" style="fill:#626262; stroke:#313131; stroke-width:.31px;"/><path d="m227.41,58.65h0c.59.54,1.19.85,1.33.7h0c.14-.16-.22-.72-.81-1.26h0c-.59-.54-1.19-.85-1.33-.7h0c-.14.16.22.72.81,1.26Z" style="fill:#626262; stroke:#313131; stroke-width:.31px;"/><path d="m224.3,58.63h0c.59.54,1.19.85,1.33.7h0c.14-.16-.22-.72-.81-1.26h0c-.59-.54-1.19-.85-1.33-.7h0c-.14.16.22.72.81,1.26Z" style="fill:#626262; stroke:#313131; stroke-width:.31px;"/><path d="m233.88,58.8h0c.59.54,1.19.85,1.33.7h0c.14-.16-.22-.72-.81-1.26h0c-.59-.54-1.19-.85-1.33-.7h0c-.14.16.22.72.81,1.26Z" style="fill:#626262; stroke:#313131; stroke-width:.31px;"/><path d="m230.46,58.71h0c.59.54,1.19.85,1.33.7h0c.14-.16-.22-.72-.81-1.26h0c-.59-.54-1.19-.85-1.33-.7h0c-.14.16.22.72.81,1.26Z" style="fill:#626262; stroke:#313131; stroke-width:.31px;"/><path d="m240.3,58.76h0c.59.54,1.19.85,1.33.7h0c.14-.16-.22-.72-.81-1.26h0c-.59-.54-1.19-.85-1.33-.7h0c-.14.16.22.72.81,1.26Z" style="fill:#626262; stroke:#313131; stroke-width:.31px;"/><path d="m237.19,58.74h0c.59.54,1.19.85,1.33.7h0c.14-.16-.22-.72-.81-1.26h0c-.59-.54-1.19-.85-1.33-.7h0c-.14.16.22.72.81,1.26Z" style="fill:#626262; stroke:#313131; stroke-width:.31px;"/><path d="m246.77,58.79h0c.59.54,1.19.85,1.33.7h0c.14-.16-.22-.72-.81-1.26h0c-.59-.54-1.19-.85-1.33-.7h0c-.14.16.22.72.81,1.26Z" style="fill:#626262; stroke:#313131; stroke-width:.31px;"/><path d="m243.36,58.69h0c.59.54,1.19.85,1.33.7h0c.14-.16-.22-.72-.81-1.26h0c-.59-.54-1.19-.85-1.33-.7h0c-.14.16.22.72.81,1.26Z" style="fill:#626262; stroke:#313131; stroke-width:.31px;"/><path d="m253.19,58.74h0c.59.54,1.19.85,1.33.7h0c.14-.16-.22-.72-.81-1.26h0c-.59-.54-1.19-.85-1.33-.7h0c-.14.16.22.72.81,1.26Z" style="fill:#626262; stroke:#313131; stroke-width:.31px;"/><path d="m250.08,58.72h0c.59.54,1.19.85,1.33.7h0c.14-.16-.22-.72-.81-1.26h0c-.59-.54-1.19-.85-1.33-.7h0c-.14.16.22.72.81,1.26Z" style="fill:#626262; stroke:#313131; stroke-width:.31px;"/><path d="m259.66,58.89h0c.59.54,1.19.85,1.33.7h0c.14-.16-.22-.72-.81-1.26h0c-.59-.54-1.19-.85-1.33-.7h0c-.14.16.22.72.81,1.26Z" style="fill:#626262; stroke:#313131; stroke-width:.31px;"/><path d="m256.24,58.8h0c.59.54,1.19.85,1.33.7h0c.14-.16-.22-.72-.81-1.26h0c-.59-.54-1.19-.85-1.33-.7h0c-.14.16.22.72.81,1.26Z" style="fill:#626262; stroke:#313131; stroke-width:.31px;"/><path d="m188.89,58.54h0c.59.54,1.19.85,1.33.7h0c.14-.16-.22-.72-.81-1.26h0c-.59-.54-1.19-.85-1.33-.7h0c-.14.16.22.72.81,1.26Z" style="fill:#626262; stroke:#313131; stroke-width:.31px;"/><path d="m194.16,59.25h0c.59-.54,1.19-.85,1.33-.7h0c.14.16-.22.72-.81,1.26h0c-.59.54-1.19.85-1.33.7h0c-.14-.16.22-.72.81-1.26Z" style="fill:#626262; stroke:#313131; stroke-width:.31px;"/><path d="m190.75,59.34h0c.59-.54,1.19-.85,1.33-.7h0c.14.16-.22.72-.81,1.26h0c-.59.54-1.19.85-1.33.7h0c-.14-.16.22-.72.81-1.26Z" style="fill:#626262; stroke:#313131; stroke-width:.31px;"/><path d="m200.59,59.29h0c.59-.54,1.19-.85,1.33-.7h0c.14.16-.22.72-.81,1.26h0c-.59.54-1.19.85-1.33.7h0c-.14-.16.22-.72.81-1.26Z" style="fill:#626262; stroke:#313131; stroke-width:.31px;"/><path d="m197.49,59.31h0c.59-.54,1.19-.85,1.33-.7h0c.14.16-.22.72-.81,1.26h0c-.59.54-1.19.85-1.33.7h0c-.14-.16.22-.72.81-1.26Z" style="fill:#626262; stroke:#313131; stroke-width:.31px;"/><path d="m207.06,59.14h0c.59-.54,1.19-.85,1.33-.7h0c.14.16-.22.72-.81,1.26h0c-.59.54-1.19.85-1.33.7h0c-.14-.16.22-.72.81-1.26Z" style="fill:#626262; stroke:#313131; stroke-width:.31px;"/><path d="m203.65,59.23h0c.59-.54,1.19-.85,1.33-.7h0c.14.16-.22.72-.81,1.26h0c-.59.54-1.19.85-1.33.7h0c-.14-.16.22-.72.81-1.26Z" style="fill:#626262; stroke:#313131; stroke-width:.31px;"/><path d="m213.49,59.18h0c.59-.54,1.19-.85,1.33-.7h0c.14.16-.22.72-.81,1.26h0c-.59.54-1.19.85-1.33.7h0c-.14-.16.22-.72.81-1.26Z" style="fill:#626262; stroke:#313131; stroke-width:.31px;"/><path d="m210.38,59.19h0c.59-.54,1.19-.85,1.33-.7h0c.14.16-.22.72-.81,1.26h0c-.59.54-1.19.85-1.33.7h0c-.14-.16.22-.72.81-1.26Z" style="fill:#626262; stroke:#313131; stroke-width:.31px;"/><path d="m219.91,59.11h0c.59-.54,1.19-.85,1.33-.7h0c.14.16-.22.72-.81,1.26h0c-.59.54-1.19.85-1.33.7h0c-.14-.16.22-.72.81-1.26Z" style="fill:#626262; stroke:#313131; stroke-width:.31px;"/><path d="m216.48,59.21h0c.59-.54,1.19-.85,1.33-.7h0c.14.16-.22.72-.81,1.26h0c-.59.54-1.19.85-1.33.7h0c-.14-.16.22-.72.81-1.26Z" style="fill:#626262; stroke:#313131; stroke-width:.31px;"/><path d="m226.32,59.16h0c.59-.54,1.19-.85,1.33-.7h0c.14.16-.22.72-.81,1.26h0c-.59.54-1.19.85-1.33.7h0c-.14-.16.22-.72.81-1.26Z" style="fill:#626262; stroke:#313131; stroke-width:.31px;"/><path d="m223.21,59.18h0c.59-.54,1.19-.85,1.33-.7h0c.14.16-.22.72-.81,1.26h0c-.59.54-1.19.85-1.33.7h0c-.14-.16.22-.72.81-1.26Z" style="fill:#626262; stroke:#313131; stroke-width:.31px;"/><path d="m232.79,59.01h0c.59-.54,1.19-.85,1.33-.7h0c.14.16-.22.72-.81,1.26h0c-.59.54-1.19.85-1.33.7h0c-.14-.16.22-.72.81-1.26Z" style="fill:#626262; stroke:#313131; stroke-width:.31px;"/><path d="m229.38,59.09h0c.59-.54,1.19-.85,1.33-.7h0c.14.16-.22.72-.81,1.26h0c-.59.54-1.19.85-1.33.7h0c-.14-.16.22-.72.81-1.26Z" style="fill:#626262; stroke:#313131; stroke-width:.31px;"/><path d="m239.22,59.05h0c.59-.54,1.19-.85,1.33-.7h0c.14.16-.22.72-.81,1.26h0c-.59.54-1.19.85-1.33.7h0c-.14-.16.22-.72.81-1.26Z" style="fill:#626262; stroke:#313131; stroke-width:.31px;"/><path d="m236.11,59.06h0c.59-.54,1.19-.85,1.33-.7h0c.14.16-.22.72-.81,1.26h0c-.59.54-1.19.85-1.33.7h0c-.14-.16.22-.72.81-1.26Z" style="fill:#626262; stroke:#313131; stroke-width:.31px;"/><path d="m245.69,59.03h0c.59-.54,1.19-.85,1.33-.7h0c.14.16-.22.72-.81,1.26h0c-.59.54-1.19.85-1.33.7h0c-.14-.16.22-.72.81-1.26Z" style="fill:#626262; stroke:#313131; stroke-width:.31px;"/><path d="m242.26,59.12h0c.59-.54,1.19-.85,1.33-.7h0c.14.16-.22.72-.81,1.26h0c-.59.54-1.19.85-1.33.7h0c-.14-.16.22-.72.81-1.26Z" style="fill:#626262; stroke:#313131; stroke-width:.31px;"/><path d="m252.1,59.08h0c.59-.54,1.19-.85,1.33-.7h0c.14.16-.22.72-.81,1.26h0c-.59.54-1.19.85-1.33.7h0c-.14-.16.22-.72.81-1.26Z" style="fill:#626262; stroke:#313131; stroke-width:.31px;"/><path d="m249,59.09h0c.59-.54,1.19-.85,1.33-.7h0c.14.16-.22.72-.81,1.26h0c-.59.54-1.19.85-1.33.7h0c-.14-.16.22-.72.81-1.26Z" style="fill:#626262; stroke:#313131; stroke-width:.31px;"/><path d="m258.57,58.92h0c.59-.54,1.19-.85,1.33-.7h0c.14.16-.22.72-.81,1.26h0c-.59.54-1.19.85-1.33.7h0c-.14-.16.22-.72.81-1.26Z" style="fill:#626262; stroke:#313131; stroke-width:.31px;"/><path d="m255.16,59.01h0c.59-.54,1.19-.85,1.33-.7h0c.14.16-.22.72-.81,1.26h0c-.59.54-1.19.85-1.33.7h0c-.14-.16.22-.72.81-1.26h0Z" style="fill:#626262; stroke:#313131; stroke-width:.31px;"/><path d="m187.81,59.26h0c.59-.54,1.19-.85,1.33-.7h0c.14.16-.22.72-.81,1.26h0c-.59.54-1.19.85-1.33.7h0c-.14-.16.22-.72.81-1.26Z" style="fill:#626262; stroke:#313131; stroke-width:.31px;"/><path d="m195.64,60.88h0c.59.54,1.19.85,1.33.7h0c.14-.16-.22-.72-.81-1.26h0c-.59-.54-1.19-.85-1.33-.7h0c-.14.16.22.72.81,1.26Z" style="fill:#626262; stroke:#313131; stroke-width:.31px;"/><path d="m192.23,60.8h0c.59.54,1.19.85,1.33.7h0c.14-.16-.22-.72-.81-1.26h0c-.59-.54-1.19-.85-1.33-.7h0c-.14.16.22.72.81,1.26Z" style="fill:#626262; stroke:#313131; stroke-width:.31px;"/><path d="m202.07,60.84h0c.59.54,1.19.85,1.33.7h0c.14-.16-.22-.72-.81-1.26h0c-.59-.54-1.19-.85-1.33-.7h0c-.14.16.22.72.81,1.26Z" style="fill:#626262; stroke:#313131; stroke-width:.31px;"/><path d="m198.96,60.83h0c.59.54,1.19.85,1.33.7h0c.14-.16-.22-.72-.81-1.26h0c-.59-.54-1.19-.85-1.33-.7h0c-.14.16.22.72.81,1.26Z" style="fill:#626262; stroke:#313131; stroke-width:.31px;"/><path d="m208.53,60.99h0c.59.54,1.19.85,1.33.7h0c.14-.16-.22-.72-.81-1.26h0c-.59-.54-1.19-.85-1.33-.7h0c-.14.16.22.72.81,1.26Z" style="fill:#626262; stroke:#313131; stroke-width:.31px;"/><path d="m205.11,60.9h0c.59.54,1.19.85,1.33.7h0c.14-.16-.22-.72-.81-1.26h0c-.59-.54-1.19-.85-1.33-.7h0c-.14.16.22.72.81,1.26Z" style="fill:#626262; stroke:#313131; stroke-width:.31px;"/><path d="m214.95,60.95h0c.59.54,1.19.85,1.33.7h0c.14-.16-.22-.72-.81-1.26h0c-.59-.54-1.19-.85-1.33-.7h0c-.14.16.22.72.81,1.26Z" style="fill:#626262; stroke:#313131; stroke-width:.31px;"/><path d="m211.85,60.94h0c.59.54,1.19.85,1.33.7h0c.14-.16-.22-.72-.81-1.26h0c-.59-.54-1.19-.85-1.33-.7h0c-.14.16.22.72.81,1.26Z" style="fill:#626262; stroke:#313131; stroke-width:.31px;"/><path d="m221.37,61.02h0c.59.54,1.19.85,1.33.7h0c.14-.16-.22-.72-.81-1.26h0c-.59-.54-1.19-.85-1.33-.7h0c-.14.16.22.72.81,1.26Z" style="fill:#626262; stroke:#313131; stroke-width:.31px;"/><path d="m217.95,60.93h0c.59.54,1.19.85,1.33.7h0c.14-.16-.22-.72-.81-1.26h0c-.59-.54-1.19-.85-1.33-.7h0c-.14.16.22.72.81,1.26Z" style="fill:#626262; stroke:#313131; stroke-width:.31px;"/><path d="m227.79,60.97h0c.59.54,1.19.85,1.33.7h0c.14-.16-.22-.72-.81-1.26h0c-.59-.54-1.19-.85-1.33-.7h0c-.14.16.22.72.81,1.26Z" style="fill:#626262; stroke:#313131; stroke-width:.31px;"/><path d="m224.69,60.95h0c.59.54,1.19.85,1.33.7h0c.14-.16-.22-.72-.81-1.26h0c-.59-.54-1.19-.85-1.33-.7h0c-.14.16.22.72.81,1.26Z" style="fill:#626262; stroke:#313131; stroke-width:.31px;"/><path d="m234.27,61.12h0c.59.54,1.19.85,1.33.7h0c.14-.16-.22-.72-.81-1.26h0c-.59-.54-1.19-.85-1.33-.7h0c-.14.16.22.72.81,1.26Z" style="fill:#626262; stroke:#313131; stroke-width:.31px;"/><path d="m230.85,61.04h0c.59.54,1.19.85,1.33.7h0c.14-.16-.22-.72-.81-1.26h0c-.59-.54-1.19-.85-1.33-.7h0c-.14.16.22.72.81,1.26Z" style="fill:#626262; stroke:#313131; stroke-width:.31px;"/><path d="m240.69,61.08h0c.59.54,1.19.85,1.33.7h0c.14-.16-.22-.72-.81-1.26h0c-.59-.54-1.19-.85-1.33-.7h0c-.14.16.22.72.81,1.26Z" style="fill:#626262; stroke:#313131; stroke-width:.31px;"/><path d="m237.58,61.06h0c.59.54,1.19.85,1.33.7h0c.14-.16-.22-.72-.81-1.26h0c-.59-.54-1.19-.85-1.33-.7h0c-.14.16.22.72.81,1.26Z" style="fill:#626262; stroke:#313131; stroke-width:.31px;"/><path d="m247.15,61.11h0c.59.54,1.19.85,1.33.7h0c.14-.16-.22-.72-.81-1.26h0c-.59-.54-1.19-.85-1.33-.7h0c-.14.16.22.72.81,1.26Z" style="fill:#626262; stroke:#313131; stroke-width:.31px;"/><path d="m243.74,61.02h0c.59.54,1.19.85,1.33.7h0c.14-.16-.22-.72-.81-1.26h0c-.59-.54-1.19-.85-1.33-.7h0c-.14.16.22.72.81,1.26Z" style="fill:#626262; stroke:#313131; stroke-width:.31px;"/><path d="m253.58,61.06h0c.59.54,1.19.85,1.33.7h0c.14-.16-.22-.72-.81-1.26h0c-.59-.54-1.19-.85-1.33-.7h0c-.14.16.22.72.81,1.26Z" style="fill:#626262; stroke:#313131; stroke-width:.31px;"/><path d="m250.48,61.04h0c.59.54,1.19.85,1.33.7h0c.14-.16-.22-.72-.81-1.26h0c-.59-.54-1.19-.85-1.33-.7h0c-.14.16.22.72.81,1.26Z" style="fill:#626262; stroke:#313131; stroke-width:.31px;"/><path d="m260.05,61.21h0c.59.54,1.19.85,1.33.7h0c.14-.16-.22-.72-.81-1.26h0c-.59-.54-1.19-.85-1.33-.7h0c-.14.16.22.72.81,1.26Z" style="fill:#626262; stroke:#313131; stroke-width:.31px;"/><path d="m256.64,61.12h0c.59.54,1.19.85,1.33.7h0c.14-.16-.22-.72-.81-1.26h0c-.59-.54-1.19-.85-1.33-.7h0c-.14.16.22.72.81,1.26Z" style="fill:#626262; stroke:#313131; stroke-width:.31px;"/><path d="m189.28,60.87h0c.59.54,1.19.85,1.33.7h0c.14-.16-.22-.72-.81-1.26h0c-.59-.54-1.19-.85-1.33-.7h0c-.14.16.22.72.81,1.26Z" style="fill:#626262; stroke:#313131; stroke-width:.31px;"/><path d="m194.33,61.34h0c.59-.54,1.19-.85,1.33-.7h0c.14.16-.22.72-.81,1.26h0c-.59.54-1.19.85-1.33.7h0c-.14-.16.22-.72.81-1.26Z" style="fill:#626262; stroke:#313131; stroke-width:.31px;"/><path d="m190.9,61.43h0c.59-.54,1.19-.85,1.33-.7h0c.14.16-.22.72-.81,1.26h0c-.59.54-1.19.85-1.33.7h0c-.14-.16.22-.72.81-1.26Z" style="fill:#626262; stroke:#313131; stroke-width:.31px;"/><path d="m200.74,61.39h0c.59-.54,1.19-.85,1.33-.7h0c.14.16-.22.72-.81,1.26h0c-.59.54-1.19.85-1.33.7h0c-.14-.16.22-.72.81-1.26Z" style="fill:#626262; stroke:#313131; stroke-width:.31px;"/><path d="m197.64,61.4h0c.59-.54,1.19-.85,1.33-.7h0c.14.16-.22.72-.81,1.26h0c-.59.54-1.19.85-1.33.7h0c-.14-.16.22-.72.81-1.26Z" style="fill:#626262; stroke:#313131; stroke-width:.31px;"/><path d="m207.21,61.23h0c.59-.54,1.19-.85,1.33-.7h0c.14.16-.22.72-.81,1.26h0c-.59.54-1.19.85-1.33.7h0c-.14-.16.22-.72.81-1.26Z" style="fill:#626262; stroke:#313131; stroke-width:.31px;"/><path d="m203.8,61.32h0c.59-.54,1.19-.85,1.33-.7h0c.14.16-.22.72-.81,1.26h0c-.59.54-1.19.85-1.33.7h0c-.14-.16.22-.72.81-1.26Z" style="fill:#626262; stroke:#313131; stroke-width:.31px;"/><path d="m213.64,61.27h0c.59-.54,1.19-.85,1.33-.7h0c.14.16-.22.72-.81,1.26h0c-.59.54-1.19.85-1.33.7h0c-.14-.16.22-.72.81-1.26Z" style="fill:#626262; stroke:#313131; stroke-width:.31px;"/><path d="m210.54,61.29h0c.59-.54,1.19-.85,1.33-.7h0c.14.16-.22.72-.81,1.26h0c-.59.54-1.19.85-1.33.7h0c-.14-.16.22-.72.81-1.26Z" style="fill:#626262; stroke:#313131; stroke-width:.31px;"/><path d="m220.05,61.2h0c.59-.54,1.19-.85,1.33-.7h0c.14.16-.22.72-.81,1.26h0c-.59.54-1.19.85-1.33.7h0c-.14-.16.22-.72.81-1.26Z" style="fill:#626262; stroke:#313131; stroke-width:.31px;"/><path d="m216.64,61.29h0c.59-.54,1.19-.85,1.33-.7h0c.14.16-.22.72-.81,1.26h0c-.59.54-1.19.85-1.33.7h0c-.14-.16.22-.72.81-1.26Z" style="fill:#626262; stroke:#313131; stroke-width:.31px;"/><path d="m226.48,61.25h0c.59-.54,1.19-.85,1.33-.7h0c.14.16-.22.72-.81,1.26h0c-.59.54-1.19.85-1.33.7h0c-.14-.16.22-.72.81-1.26Z" style="fill:#626262; stroke:#313131; stroke-width:.31px;"/><path d="m223.38,61.26h0c.59-.54,1.19-.85,1.33-.7h0c.14.16-.22.72-.81,1.26h0c-.59.54-1.19.85-1.33.7h0c-.14-.16.22-.72.81-1.26Z" style="fill:#626262; stroke:#313131; stroke-width:.31px;"/><path d="m232.95,61.1h0c.59-.54,1.19-.85,1.33-.7h0c.14.16-.22.72-.81,1.26h0c-.59.54-1.19.85-1.33.7h0c-.14-.16.22-.72.81-1.26Z" style="fill:#626262; stroke:#313131; stroke-width:.31px;"/><path d="m229.53,61.19h0c.59-.54,1.19-.85,1.33-.7h0c.14.16-.22.72-.81,1.26h0c-.59.54-1.19.85-1.33.7h0c-.14-.16.22-.72.81-1.26Z" style="fill:#626262; stroke:#313131; stroke-width:.31px;"/><path d="m239.37,61.14h0c.59-.54,1.19-.85,1.33-.7h0c.14.16-.22.72-.81,1.26h0c-.59.54-1.19.85-1.33.7h0c-.14-.16.22-.72.81-1.26Z" style="fill:#626262; stroke:#313131; stroke-width:.31px;"/><path d="m236.26,61.16h0c.59-.54,1.19-.85,1.33-.7h0c.14.16-.22.72-.81,1.26h0c-.59.54-1.19.85-1.33.7h0c-.14-.16.22-.72.81-1.26Z" style="fill:#626262; stroke:#313131; stroke-width:.31px;"/><path d="m245.84,61.11h0c.59-.54,1.19-.85,1.33-.7h0c.14.16-.22.72-.81,1.26h0c-.59.54-1.19.85-1.33.7h0c-.14-.16.22-.72.81-1.26Z" style="fill:#626262; stroke:#313131; stroke-width:.31px;"/><path d="m242.42,61.2h0c.59-.54,1.19-.85,1.33-.7h0c.14.16-.22.72-.81,1.26h0c-.59.54-1.19.85-1.33.7h0c-.14-.16.22-.72.81-1.26Z" style="fill:#626262; stroke:#313131; stroke-width:.31px;"/><path d="m252.26,61.16h0c.59-.54,1.19-.85,1.33-.7h0c.14.16-.22.72-.81,1.26h0c-.59.54-1.19.85-1.33.7h0c-.14-.16.22-.72.81-1.26Z" style="fill:#626262; stroke:#313131; stroke-width:.31px;"/><path d="m249.16,61.17h0c.59-.54,1.19-.85,1.33-.7h0c.14.16-.22.72-.81,1.26h0c-.59.54-1.19.85-1.33.7h0c-.14-.16.22-.72.81-1.26Z" style="fill:#626262; stroke:#313131; stroke-width:.31px;"/><path d="m258.73,61.01h0c.59-.54,1.19-.85,1.33-.7h0c.14.16-.22.72-.81,1.26h0c-.59.54-1.19.85-1.33.7h0c-.14-.16.22-.72.81-1.26Z" style="fill:#626262; stroke:#313131; stroke-width:.31px;"/><path d="m255.31,61.1h0c.59-.54,1.19-.85,1.33-.7h0c.14.16-.22.72-.81,1.26h0c-.59.54-1.19.85-1.33.7h0c-.14-.16.22-.72.81-1.26h0Z" style="fill:#626262; stroke:#313131; stroke-width:.31px;"/><path d="m187.97,61.35h0c.59-.54,1.19-.85,1.33-.7h0c.14.16-.22.72-.81,1.26h0c-.59.54-1.19.85-1.33.7h0c-.14-.16.22-.72.81-1.26Z" style="fill:#626262; stroke:#313131; stroke-width:.31px;"/><path d="m195.33,62.75h0c.59.54,1.19.85,1.33.7h0c.14-.16-.22-.72-.81-1.26h0c-.59-.54-1.19-.85-1.33-.7h0c-.14.16.22.72.81,1.26Z" style="fill:#626262; stroke:#313131; stroke-width:.31px;"/><path d="m191.91,62.65h0c.59.54,1.19.85,1.33.7h0c.14-.16-.22-.72-.81-1.26h0c-.59-.54-1.19-.85-1.33-.7h0c-.14.16.22.72.81,1.26Z" style="fill:#626262; stroke:#313131; stroke-width:.31px;"/><path d="m201.75,62.69h0c.59.54,1.19.85,1.33.7h0c.14-.16-.22-.72-.81-1.26h0c-.59-.54-1.19-.85-1.33-.7h0c-.14.16.22.72.81,1.26Z" style="fill:#626262; stroke:#313131; stroke-width:.31px;"/><path d="m198.64,62.68h0c.59.54,1.19.85,1.33.7h0c.14-.16-.22-.72-.81-1.26h0c-.59-.54-1.19-.85-1.33-.7h0c-.14.16.22.72.81,1.26Z" style="fill:#626262; stroke:#313131; stroke-width:.31px;"/><path d="m208.22,62.85h0c.59.54,1.19.85,1.33.7h0c.14-.16-.22-.72-.81-1.26h0c-.59-.54-1.19-.85-1.33-.7h0c-.14.16.22.72.81,1.26Z" style="fill:#626262; stroke:#313131; stroke-width:.31px;"/><path d="m204.81,62.76h0c.59.54,1.19.85,1.33.7h0c.14-.16-.22-.72-.81-1.26h0c-.59-.54-1.19-.85-1.33-.7h0c-.14.16.22.72.81,1.26Z" style="fill:#626262; stroke:#313131; stroke-width:.31px;"/><path d="m214.65,62.81h0c.59.54,1.19.85,1.33.7h0c.14-.16-.22-.72-.81-1.26h0c-.59-.54-1.19-.85-1.33-.7h0c-.14.16.22.72.81,1.26Z" style="fill:#626262; stroke:#313131; stroke-width:.31px;"/><path d="m211.54,62.8h0c.59.54,1.19.85,1.33.7h0c.14-.16-.22-.72-.81-1.26h0c-.59-.54-1.19-.85-1.33-.7h0c-.14.16.22.72.81,1.26Z" style="fill:#626262; stroke:#313131; stroke-width:.31px;"/><path d="m221.06,62.88h0c.59.54,1.19.85,1.33.7h0c.14-.16-.22-.72-.81-1.26h0c-.59-.54-1.19-.85-1.33-.7h0c-.14.16.22.72.81,1.26Z" style="fill:#626262; stroke:#313131; stroke-width:.31px;"/><path d="m217.65,62.79h0c.59.54,1.19.85,1.33.7h0c.14-.16-.22-.72-.81-1.26h0c-.59-.54-1.19-.85-1.33-.7h0c-.14.16.22.72.81,1.26Z" style="fill:#626262; stroke:#313131; stroke-width:.31px;"/><path d="m227.49,62.83h0c.59.54,1.19.85,1.33.7h0c.14-.16-.22-.72-.81-1.26h0c-.59-.54-1.19-.85-1.33-.7h0c-.14.16.22.72.81,1.26Z" style="fill:#626262; stroke:#313131; stroke-width:.31px;"/><path d="m224.38,62.82h0c.59.54,1.19.85,1.33.7h0c.14-.16-.22-.72-.81-1.26h0c-.59-.54-1.19-.85-1.33-.7h0c-.14.16.22.72.81,1.26Z" style="fill:#626262; stroke:#313131; stroke-width:.31px;"/><path d="m233.95,62.99h0c.59.54,1.19.85,1.33.7h0c.14-.16-.22-.72-.81-1.26h0c-.59-.54-1.19-.85-1.33-.7h0c-.14.16.22.72.81,1.26Z" style="fill:#626262; stroke:#313131; stroke-width:.31px;"/><path d="m230.54,62.89h0c.59.54,1.19.85,1.33.7h0c.14-.16-.22-.72-.81-1.26h0c-.59-.54-1.19-.85-1.33-.7h0c-.14.16.22.72.81,1.26Z" style="fill:#626262; stroke:#313131; stroke-width:.31px;"/><path d="m240.38,62.93h0c.59.54,1.19.85,1.33.7h0c.14-.16-.22-.72-.81-1.26h0c-.59-.54-1.19-.85-1.33-.7h0c-.14.16.22.72.81,1.26Z" style="fill:#626262; stroke:#313131; stroke-width:.31px;"/><path d="m237.27,62.92h0c.59.54,1.19.85,1.33.7h0c.14-.16-.22-.72-.81-1.26h0c-.59-.54-1.19-.85-1.33-.7h0c-.14.16.22.72.81,1.26Z" style="fill:#626262; stroke:#313131; stroke-width:.31px;"/><path d="m246.84,62.97h0c.59.54,1.19.85,1.33.7h0c.14-.16-.22-.72-.81-1.26h0c-.59-.54-1.19-.85-1.33-.7h0c-.14.16.22.72.81,1.26Z" style="fill:#626262; stroke:#313131; stroke-width:.31px;"/><path d="m243.43,62.88h0c.59.54,1.19.85,1.33.7h0c.14-.16-.22-.72-.81-1.26h0c-.59-.54-1.19-.85-1.33-.7h0c-.14.16.22.72.81,1.26Z" style="fill:#626262; stroke:#313131; stroke-width:.31px;"/><path d="m253.27,62.92h0c.59.54,1.19.85,1.33.7h0c.14-.16-.22-.72-.81-1.26h0c-.59-.54-1.19-.85-1.33-.7h0c-.14.16.22.72.81,1.26Z" style="fill:#626262; stroke:#313131; stroke-width:.31px;"/><path d="m250.16,62.91h0c.59.54,1.19.85,1.33.7h0c.14-.16-.22-.72-.81-1.26h0c-.59-.54-1.19-.85-1.33-.7h0c-.14.16.22.72.81,1.26Z" style="fill:#626262; stroke:#313131; stroke-width:.31px;"/><path d="m259.73,63.08h0c.59.54,1.19.85,1.33.7h0c.14-.16-.22-.72-.81-1.26h0c-.59-.54-1.19-.85-1.33-.7h0c-.14.16.22.72.81,1.26Z" style="fill:#626262; stroke:#313131; stroke-width:.31px;"/><path d="m256.32,62.98h0c.59.54,1.19.85,1.33.7h0c.14-.16-.22-.72-.81-1.26h0c-.59-.54-1.19-.85-1.33-.7h0c-.14.16.22.72.81,1.26Z" style="fill:#626262; stroke:#313131; stroke-width:.31px;"/><path d="m188.97,62.73h0c.59.54,1.19.85,1.33.7h0c.14-.16-.22-.72-.81-1.26h0c-.59-.54-1.19-.85-1.33-.7h0c-.14.16.22.72.81,1.26Z" style="fill:#626262; stroke:#313131; stroke-width:.31px;"/><path d="m185.36,63.73h0c.64.48,1.27.73,1.39.56h0c.13-.17-.29-.69-.94-1.17h0c-.64-.48-1.27-.73-1.39-.56h0c-.13.17.29.69.94,1.17Z" style="fill:#626262; stroke:#313131; stroke-width:.31px;"/><path d="m182.44,64.11h0c.64.48,1.27.73,1.39.56h0c.13-.17-.29-.69-.94-1.17h0c-.64-.48-1.27-.73-1.39-.56h0c-.13.17.29.69.94,1.17Z" style="fill:#626262; stroke:#313131; stroke-width:.31px;"/><path d="m183.88,62.2h0c.53-.6,1.09-.97,1.25-.83h0c.16.14-.15.74-.68,1.34h0c-.53.6-1.09.97-1.25.83h0c-.16-.14.15-.74.68-1.34Z" style="fill:#626262; stroke:#313131; stroke-width:.31px;"/><path d="m185.34,61.19h0c.64.48,1.27.73,1.39.56h0c.13-.17-.29-.69-.94-1.17h0c-.64-.48-1.27-.73-1.39-.56h0c-.13.17.29.69.94,1.17Z" style="fill:#626262; stroke:#313131; stroke-width:.31px;"/><path d="m182.42,61.56h0c.64.48,1.27.73,1.39.56h0c.13-.17-.29-.69-.94-1.17h0c-.64-.48-1.27-.73-1.39-.56h0c-.13.17.29.69.94,1.17Z" style="fill:#626262; stroke:#313131; stroke-width:.31px;"/><path d="m183.49,59.83h0c.53-.6,1.09-.97,1.25-.83h0c.16.14-.15.74-.68,1.34h0c-.53.6-1.09.97-1.25.83h0c-.16-.14.15-.74.68-1.34Z" style="fill:#626262; stroke:#313131; stroke-width:.31px;"/><path d="m184.96,58.97h0c.64.48,1.27.73,1.39.56h0c.13-.17-.29-.69-.94-1.17h0c-.64-.48-1.27-.73-1.39-.56h0c-.13.17.29.69.94,1.17Z" style="fill:#626262; stroke:#313131; stroke-width:.31px;"/><path d="m182.04,59.34h0c.64.48,1.27.73,1.39.56h0c.13-.17-.29-.69-.94-1.17h0c-.64-.48-1.27-.73-1.39-.56h0c-.13.17.29.69.94,1.17Z" style="fill:#626262; stroke:#313131; stroke-width:.31px;"/><path d="m183.56,57.41h0c.53-.6,1.09-.97,1.25-.83h0c.16.14-.15.74-.68,1.34h0c-.53.6-1.09.97-1.25.83h0c-.16-.14.15-.74.68-1.34Z" style="fill:#626262; stroke:#313131; stroke-width:.31px;"/><path d="m184.89,56.01h0c.64.48,1.27.73,1.39.56h0c.13-.17-.29-.69-.94-1.17h0c-.64-.48-1.27-.73-1.39-.56h0c-.13.17.29.69.94,1.17Z" style="fill:#626262; stroke:#313131; stroke-width:.31px;"/><path d="m181.97,56.39h0c.64.48,1.27.73,1.39.56h0c.13-.17-.29-.69-.94-1.17h0c-.64-.48-1.27-.73-1.39-.56h0c-.13.17.29.69.94,1.17Z" style="fill:#626262; stroke:#313131; stroke-width:.31px;"/><path d="m183.35,54.63h0c.53-.6,1.09-.97,1.25-.83h0c.16.14-.15.74-.68,1.34h0c-.53.6-1.09.97-1.25.83h0c-.16-.14.15-.74.68-1.34Z" style="fill:#626262; stroke:#313131; stroke-width:.31px;"/><path d="m185.04,53.67h0c.64.48,1.27.73,1.39.56h0c.13-.17-.29-.69-.94-1.17h0c-.64-.48-1.27-.73-1.39-.56h0c-.13.17.29.69.94,1.17Z" style="fill:#626262; stroke:#313131; stroke-width:.31px;"/><path d="m182.12,54.04h0c.64.48,1.27.73,1.39.56h0c.13-.17-.29-.69-.94-1.17h0c-.64-.48-1.27-.73-1.39-.56h0c-.13.17.29.69.94,1.17Z" style="fill:#626262; stroke:#313131; stroke-width:.31px;"/><path d="m183.57,52.19h0c.53-.6,1.09-.97,1.25-.83h0c.16.14-.15.74-.68,1.34h0c-.53.6-1.09.97-1.25.83h0c-.16-.14.15-.74.68-1.34Z" style="fill:#626262; stroke:#313131; stroke-width:.31px;"/><path d="m185.34,51.22h0c.64.48,1.27.73,1.39.56h0c.13-.17-.29-.69-.94-1.17h0c-.64-.48-1.27-.73-1.39-.56h0c-.13.17.29.69.94,1.17Z" style="fill:#626262; stroke:#313131; stroke-width:.31px;"/><path d="m182.42,51.6h0c.64.48,1.27.73,1.39.56h0c.13-.17-.29-.69-.94-1.17h0c-.64-.48-1.27-.73-1.39-.56h0c-.13.17.29.69.94,1.17Z" style="fill:#626262; stroke:#313131; stroke-width:.31px;"/><path d="m183.72,49.84h0c.53-.6,1.09-.97,1.25-.83h0c.16.14-.15.74-.68,1.34h0c-.53.6-1.09.97-1.25.83h0c-.16-.14.15-.74.68-1.34Z" style="fill:#626262; stroke:#313131; stroke-width:.31px;"/><path d="m185.28,49.13h0c.64.48,1.27.73,1.39.56h0c.13-.17-.29-.69-.94-1.17h0c-.64-.48-1.27-.73-1.39-.56h0c-.13.17.29.69.94,1.17Z" style="fill:#626262; stroke:#313131; stroke-width:.31px;"/><path d="m182.36,49.5h0c.64.48,1.27.73,1.39.56h0c.13-.17-.29-.69-.94-1.17h0c-.64-.48-1.27-.73-1.39-.56h0c-.13.17.29.69.94,1.17Z" style="fill:#626262; stroke:#313131; stroke-width:.31px;"/><path d="m183.22,48.02h0c.53-.6,1.09-.97,1.25-.83h0c.16.14-.15.74-.68,1.34h0c-.53.6-1.09.97-1.25.83h0c-.16-.14.15-.74.68-1.34Z" style="fill:#626262; stroke:#313131; stroke-width:.31px;"/><path d="m263.23,47.65h0c.59-.54,1.19-.85,1.33-.7h0c.14.16-.22.72-.81,1.26h0c-.59.54-1.19.85-1.33.7h0c-.14-.16.22-.72.81-1.26Z" style="fill:#626262; stroke:#313131; stroke-width:.31px;"/><path d="m260.29,47.58h0c.59-.54,1.19-.85,1.33-.7h0c.14.16-.22.72-.81,1.26h0c-.59.54-1.19.85-1.33.7h0c-.14-.16.22-.72.81-1.26Z" style="fill:#626262; stroke:#313131; stroke-width:.31px;"/><path d="m261.92,49.32h0c.59.54,1.19.85,1.33.7h0c.14-.16-.22-.72-.81-1.26h0c-.59-.54-1.19-.85-1.33-.7h0c-.14.16.22.72.81,1.26Z" style="fill:#626262; stroke:#313131; stroke-width:.31px;"/><path d="m263.48,50.19h0c.59-.54,1.19-.85,1.33-.7h0c.14.16-.22.72-.81,1.26h0c-.59.54-1.19.85-1.33.7h0c-.14-.16.22-.72.81-1.26Z" style="fill:#626262; stroke:#313131; stroke-width:.31px;"/><path d="m260.53,50.11h0c.59-.54,1.19-.85,1.33-.7h0c.14.16-.22.72-.81,1.26h0c-.59.54-1.19.85-1.33.7h0c-.14-.16.22-.72.81-1.26Z" style="fill:#626262; stroke:#313131; stroke-width:.31px;"/><path d="m261.77,51.72h0c.59.54,1.19.85,1.33.7h0c.14-.16-.22-.72-.81-1.26h0c-.59-.54-1.19-.85-1.33-.7h0c-.14.16.22.72.81,1.26Z" style="fill:#626262; stroke:#313131; stroke-width:.31px;"/><path d="m263.32,52.43h0c.59-.54,1.19-.85,1.33-.7h0c.14.16-.22.72-.81,1.26h0c-.59.54-1.19.85-1.33.7h0c-.14-.16.22-.72.81-1.26Z" style="fill:#626262; stroke:#313131; stroke-width:.31px;"/><path d="m260.37,52.35h0c.59-.54,1.19-.85,1.33-.7h0c.14.16-.22.72-.81,1.26h0c-.59.54-1.19.85-1.33.7h0c-.14-.16.22-.72.81-1.26Z" style="fill:#626262; stroke:#313131; stroke-width:.31px;"/><path d="m262.08,54.12h0c.59.54,1.19.85,1.33.7h0c.14-.16-.22-.72-.81-1.26h0c-.59-.54-1.19-.85-1.33-.7h0c-.14.16.22.72.81,1.26Z" style="fill:#626262; stroke:#313131; stroke-width:.31px;"/><path d="m263.55,55.38h0c.59-.54,1.19-.85,1.33-.7h0c.14.16-.22.72-.81,1.26h0c-.59.54-1.19.85-1.33.7h0c-.14-.16.22-.72.81-1.26Z" style="fill:#626262; stroke:#313131; stroke-width:.31px;"/><path d="m260.6,55.3h0c.59-.54,1.19-.85,1.33-.7h0c.14.16-.22.72-.81,1.26h0c-.59.54-1.19.85-1.33.7h0c-.14-.16.22-.72.81-1.26Z" style="fill:#626262; stroke:#313131; stroke-width:.31px;"/><path d="m262.15,56.92h0c.59.54,1.19.85,1.33.7h0c.14-.16-.22-.72-.81-1.26h0c-.59-.54-1.19-.85-1.33-.7h0c-.14.16.22.72.81,1.26Z" style="fill:#626262; stroke:#313131; stroke-width:.31px;"/><path d="m263.94,57.7h0c.59-.54,1.19-.85,1.33-.7h0c.14.16-.22.72-.81,1.26h0c-.59.54-1.19.85-1.33.7h0c-.14-.16.22-.72.81-1.26Z" style="fill:#626262; stroke:#313131; stroke-width:.31px;"/><path d="m261,57.62h0c.59-.54,1.19-.85,1.33-.7h0c.14.16-.22.72-.81,1.26h0c-.59.54-1.19.85-1.33.7h0c-.14-.16.22-.72.81-1.26Z" style="fill:#626262; stroke:#313131; stroke-width:.31px;"/><path d="m262.62,59.31h0c.59.54,1.19.85,1.33.7h0c.14-.16-.22-.72-.81-1.26h0c-.59-.54-1.19-.85-1.33-.7h0c-.14.16.22.72.81,1.26Z" style="fill:#626262; stroke:#313131; stroke-width:.31px;"/><path d="m264.48,60.1h0c.59-.54,1.19-.85,1.33-.7h0c.14.16-.22.72-.81,1.26h0c-.59.54-1.19.85-1.33.7h0c-.14-.16.22-.72.81-1.26Z" style="fill:#626262; stroke:#313131; stroke-width:.31px;"/><path d="m261.54,60.03h0c.59-.54,1.19-.85,1.33-.7h0c.14.16-.22.72-.81,1.26h0c-.59.54-1.19.85-1.33.7h0c-.14-.16.22-.72.81-1.26Z" style="fill:#626262; stroke:#313131; stroke-width:.31px;"/><path d="m263,61.63h0c.59.54,1.19.85,1.33.7h0c.14-.16-.22-.72-.81-1.26h0c-.59-.54-1.19-.85-1.33-.7h0c-.14.16.22.72.81,1.26Z" style="fill:#626262; stroke:#313131; stroke-width:.31px;"/><path d="m264.64,62.19h0c.59-.54,1.19-.85,1.33-.7h0c.14.16-.22.72-.81,1.26h0c-.59.54-1.19.85-1.33.7h0c-.14-.16.22-.72.81-1.26Z" style="fill:#626262; stroke:#313131; stroke-width:.31px;"/><path d="m261.69,62.11h0c.59-.54,1.19-.85,1.33-.7h0c.14.16-.22.72-.81,1.26h0c-.59.54-1.19.85-1.33.7h0c-.14-.16.22-.72.81-1.26Z" style="fill:#626262; stroke:#313131; stroke-width:.31px;"/><path d="m262.69,63.5h0c.59.54,1.19.85,1.33.7h0c.14-.16-.22-.72-.81-1.26h0c-.59-.54-1.19-.85-1.33-.7h0c-.14.16.22.72.81,1.26Z" style="fill:#626262; stroke:#313131; stroke-width:.31px;"/></g></g></g><g><path d="m423.79,876.2c-8.86,8.09-24.33,13.44-41.94,13.44H65.94c-17.43,0-32.75-4.95-41.53-12.44,8.52,9.27,23.93,15.47,41.53,15.47h315.91c18.44,0,34.39-6.72,41.94-16.47Z" style="fill:url(#uuid-f5250831-95fa-4aba-9a5b-4e955f01dacd); fill-rule:evenodd;"/><path d="m21.2,19.08c8.95-8.09,24.58-13.44,42.37-13.44h319.14c17.61,0,33.08,4.95,41.96,12.44-8.6-9.27-24.18-15.47-41.96-15.47H63.57c-18.63,0-34.74,6.72-42.37,16.47Z" style="fill:url(#uuid-8702e1d8-39b2-4c33-bfdb-081f41c05130); fill-rule:evenodd;"/><path d="m25.08,870.81l-5.59-6.81-5.84-11.51-1.78-6.32-1.05-15.73V66.33l.24-12.65,1.95-8.51,3.65-9.48,7.21-9.81,3.97-4.86,4.22-2.92c1.1-.74,1.56-.73,1.71-.35.28,1.75-.86,3.12-1.67,4.44-1.13,1.86-2.15,3.62-3.12,5.41-1.66,3.37-3.54,6.68-4.97,9.84-.69,1.53-1.32,3.12-1.87,4.79-1.7,6.14-2.62,12.21-3.15,18.11-.4,4.51-.5,9.21-.3,14.09v746.1c.07,4.26-.12,8.97.02,12.9.12,3.16.41,5.93.79,8.45.97,5.16,1.95,9.74,3.6,14.28.4,1.09.81,2.1,1.25,3.04,1.56,3.02,3.26,5.89,4.84,8.72.81,1.45,1.51,2.66,2.11,3.69,2.96,8.93-2.96,2.52-6.22-.82h0v.02Z" style="fill:url(#uuid-84c9b710-f112-45ae-a160-e30d9f0bfb6a);"/><path d="m422.08,871.5l5.59-6.81,5.84-11.51,1.78-6.32,1.05-15.73V67.02l-.24-12.65-1.95-8.51-3.65-9.48-7.21-9.81-3.97-4.86-4.22-2.92c-1.1-.74-1.56-.73-1.71-.35-.28,1.75.86,3.12,1.67,4.44,1.13,1.86,2.15,3.63,3.12,5.41,1.66,3.37,3.54,6.68,4.97,9.84.69,1.53,1.32,3.12,1.87,4.79,1.7,6.14,2.62,12.21,3.15,18.11.4,4.51.5,9.21.3,14.09v746.1c-.07,4.26.12,8.97-.02,12.9-.12,3.16-.41,5.93-.79,8.45-.97,5.16-1.95,9.74-3.6,14.28-.4,1.09-.81,2.1-1.25,3.04-1.56,3.02-3.26,5.89-4.84,8.72-.81,1.45-1.51,2.66-2.11,3.69-2.96,8.93,2.96,2.52,6.22-.82h0v.02Z" style="fill:url(#uuid-1ec75fcb-4daf-41b7-93e5-3e043d327807);"/><rect x="10.8" y="7.84" width="425.4" height="879.79" rx="52.69" ry="52.69" style="fill:none; stroke:#4b4b4b; stroke-width:1.5px;"/></g></svg>