<?xml version="1.0" encoding="utf-8"?>
<!-- Generator: Adobe Illustrator 27.2.0, SVG Export Plug-In . SVG Version: 6.00 Build 0)  -->
<svg version="1.1"
	 id="svg8" xmlns:cc="http://creativecommons.org/ns#" xmlns:svg="http://www.w3.org/2000/svg" xmlns:dc="http://purl.org/dc/elements/1.1/" xmlns:rdf="http://www.w3.org/1999/02/22-rdf-syntax-ns#"
	 xmlns="http://www.w3.org/2000/svg" xmlns:xlink="http://www.w3.org/1999/xlink" x="0px" y="0px" viewBox="0 0 439.4 884.8"
	 style="enable-background:new 0 0 439.4 884.8;" xml:space="preserve">
<style type="text/css">
	.st0{fill:none;}
	.st1{fill:#12284A;}
	.st2{fill:url(#rect2415-4-9-9_00000039118535916814313010000007662341093432463797_);}
	.st3{fill:url(#rect2415-4-9_00000113340104483541367250000007041978660135417789_);}
	.st4{fill:url(#rect2415-4-9-6_00000103947386960623994010000005626004469430003121_);}
	.st5{fill:url(#rect2415-4_00000147907617911880895970000011698893237315874712_);}
	.st6{fill:#455D80;stroke:#12284A;stroke-width:1.2133;stroke-linecap:round;stroke-linejoin:round;stroke-miterlimit:15.1181;}
	.st7{clip-path:url(#SVGID_00000144295597438470777920000010425108517102581406_);fill:#142B4B;}
	.st8{fill:#445B75;}
	.st9{stroke:#434343;stroke-width:0.6066;stroke-miterlimit:15.1181;}
	.st10{fill:#161616;}
	.st11{fill:#0A0D13;}
	.st12{fill:#091427;}
	.st13{fill-rule:evenodd;clip-rule:evenodd;fill:#235A91;fill-opacity:0.5561;}
	.st14{fill:url(#rect5261_00000149340700236371464170000017956073427421548711_);}
	.st15{fill:none;stroke:#292929;stroke-width:0.2981;stroke-linecap:round;stroke-miterlimit:14.7049;}
	.st16{fill:#FFFFFF;}
	.st17{fill:url(#path998_00000105391571795604690730000001345842270721766334_);}
</style>
<pattern  x="38.2" y="807.4" width="363" height="730" patternUnits="userSpaceOnUse" id="rect5261_0000012845572652717974" viewBox="0 -730 363 730" style="overflow:visible;">
	<g>
		<rect y="-730" class="st0" width="363" height="730"/>
		<g>
			<rect y="-730" class="st0" width="363" height="730"/>
		</g>
	</g>
</pattern>
<path id="rect2415-6-8" class="st1" d="M428.1,227.6h10.3c0.5,0,1,0.4,1,1v102.3c0,0.5-0.4,1-1,1h-10.3c-0.5,0-1-0.4-1-1V228.5
	C427.1,228,427.6,227.6,428.1,227.6z"/>
<linearGradient id="rect2415-4-9-9_00000119813423698702824370000010663931436364075912_" gradientUnits="userSpaceOnUse" x1="-1098.2096" y1="189.4658" x2="-1098.2096" y2="216.4799" gradientTransform="matrix(3.7795 0 0 3.7795 4583.9331 -487.2792)">
	<stop  offset="0" style="stop-color:#455D80"/>
	<stop  offset="0.2" style="stop-color:#19365E"/>
	<stop  offset="0.8" style="stop-color:#19365E"/>
	<stop  offset="1" style="stop-color:#455D80"/>
</linearGradient>
<path id="rect2415-4-9-9" style="fill:url(#rect2415-4-9-9_00000119813423698702824370000010663931436364075912_);" d="M428.1,228.8
	h10.3c0.5,0,1,0.4,1,1v100.1c0,0.5-0.4,1-1,1h-10.3c-0.5,0-1-0.4-1-1V229.8C427.1,229.3,427.6,228.8,428.1,228.8z"/>
<path id="rect2415-6" class="st1" d="M1,205.1h10.3c0.5,0,1,0.4,1,1v63.2c0,0.5-0.4,1-1,1H1c-0.5,0-1-0.4-1-1v-63.2
	C0,205.5,0.5,205.1,1,205.1z"/>
<linearGradient id="rect2415-4-9_00000142873633335687827830000006173101416233141410_" gradientUnits="userSpaceOnUse" x1="-1118.0762" y1="188.4403" x2="-1118.0762" y2="205.1091" gradientTransform="matrix(3.7795 0 0 3.7795 4231.9189 -505.8034)">
	<stop  offset="0" style="stop-color:#455D80"/>
	<stop  offset="0.2" style="stop-color:#19365E"/>
	<stop  offset="0.8" style="stop-color:#19365E"/>
	<stop  offset="1" style="stop-color:#455D80"/>
</linearGradient>
<path id="rect2415-4-9" style="fill:url(#rect2415-4-9_00000142873633335687827830000006173101416233141410_);" d="M1,206.4h10.3
	c0.5,0,1,0.4,1,1v61c0,0.5-0.4,1-1,1H1c-0.5,0-1-0.4-1-1v-61C0,206.8,0.5,206.4,1,206.4z"/>
<path id="rect2415-6-0" class="st1" d="M1,290.1h10.3c0.5,0,1,0.4,1,1v63.2c0,0.5-0.4,1-1,1H1c-0.5,0-1-0.4-1-1v-63.2
	C0,290.5,0.5,290.1,1,290.1z"/>
<linearGradient id="rect2415-4-9-6_00000170236729190815171680000005566093925030059682_" gradientUnits="userSpaceOnUse" x1="-1118.0762" y1="192.3728" x2="-1118.0762" y2="209.0417" gradientTransform="matrix(3.7795 0 0 3.7795 4231.9189 -435.7665)">
	<stop  offset="0" style="stop-color:#455D80"/>
	<stop  offset="0.2" style="stop-color:#19365E"/>
	<stop  offset="0.8" style="stop-color:#19365E"/>
	<stop  offset="1" style="stop-color:#455D80"/>
</linearGradient>
<path id="rect2415-4-9-6" style="fill:url(#rect2415-4-9-6_00000170236729190815171680000005566093925030059682_);" d="M1,291.3
	h10.3c0.5,0,1,0.4,1,1v61c0,0.5-0.4,1-1,1H1c-0.5,0-1-0.4-1-1v-61C0,291.8,0.5,291.3,1,291.3L1,291.3z"/>
<path id="rect2415" class="st1" d="M1,140.6h10.3c0.5,0,1,0.4,1,1v31.8c0,0.5-0.4,1-1,1H1c-0.5,0-1-0.4-1-1v-31.8
	C0,141,0.5,140.6,1,140.6z"/>
<linearGradient id="rect2415-4_00000072267530787020448320000013725531173144264334_" gradientUnits="userSpaceOnUse" x1="-1118.0762" y1="185.4353" x2="-1118.0762" y2="193.8226" gradientTransform="matrix(3.7795 0 0 3.7795 4231.9189 -558.9735)">
	<stop  offset="0" style="stop-color:#455D80"/>
	<stop  offset="0.2" style="stop-color:#19365E"/>
	<stop  offset="0.8" style="stop-color:#19365E"/>
	<stop  offset="1" style="stop-color:#455D80"/>
</linearGradient>
<path id="rect2415-4" style="fill:url(#rect2415-4_00000072267530787020448320000013725531173144264334_);" d="M1,141.8h10.3
	c0.5,0,1,0.4,1,1v29.7c0,0.5-0.4,1-1,1H1c-0.5,0-1-0.4-1-1v-29.7C0,142.3,0.5,141.8,1,141.8z"/>
<path id="rect2163" class="st6" d="M71.5,0.6h296.4c37.3,0,67.5,30.2,67.5,67.5v748.6c0,37.3-30.2,67.5-67.5,67.5H71.5
	C34.2,884.2,4,854,4,816.7V68.1C4,30.8,34.2,0.6,71.5,0.6z"/>
<g>
	<g>
		<defs>
			<path id="SVGID_1_" d="M71.5,0.6h296.4c37.3,0,67.5,30.2,67.5,67.5v748.6c0,37.3-30.2,67.5-67.5,67.5H71.5
				C34.2,884.2,4,854,4,816.7V68.1C4,30.8,34.2,0.6,71.5,0.6z"/>
		</defs>
		<clipPath id="SVGID_00000102508341412160701150000018288219075796590233_">
			<use xlink:href="#SVGID_1_"  style="overflow:visible;"/>
		</clipPath>
		<path id="rect2163-1" style="clip-path:url(#SVGID_00000102508341412160701150000018288219075796590233_);fill:#142B4B;" d="
			M71.5,2.9C35.4,2.9,6.4,31.9,6.4,68v748.7c0,36.1,29,65.1,65.1,65.1H368c36.1,0,65.1-29,65.1-65.1V68.1C433.1,32,404.1,3,368,3
			L71.5,2.9L71.5,2.9z"/>
	</g>
</g>
<path id="rect2172" class="st8" d="M338.7,0v14.5h9.9V0H338.7z M3.4,88.1V98h432.7v-9.9C436.1,88.1,3.4,88.1,3.4,88.1z M3.4,788.3
	v9.9h432.7v-9.9H3.4z M90.8,872.3v12.5h9.9v-12.5H90.8z"/>
<path id="rect3540" class="st9" d="M72.6,6.1h294.2c35.1,0,63.6,28.5,63.6,63.6V815c0,35.1-28.5,63.6-63.6,63.6H72.6
	C37.5,878.6,9,850.1,9,815V69.8C9,34.6,37.5,6.1,72.6,6.1z"/>
<g id="g2170" transform="translate(104.02232,1.0583265)">
	<circle id="path5263" class="st10" cx="159" cy="30.8" r="8"/>
	<circle id="path5265" class="st11" cx="159" cy="30.8" r="4.9"/>
	<circle id="path5267" class="st12" cx="159" cy="30.8" r="3.8"/>
	<path id="path5271" class="st13" d="M156.4,28.2c-0.4,0-1.1,0.7-1.1,2.1c0,1.3,0.5,2.1,0.9,2.1C156.4,32.4,157.8,30.4,156.4,28.2
		L156.4,28.2z"/>
	<path id="path5273" class="st13" d="M159.6,27.8c-0.7,0.2-0.8,1.4-0.8,2s0.9,2.4,2.1,2c1.1-0.4,1.3-1.8,0.8-2.7
		C161.2,28.1,160.4,27.4,159.6,27.8z"/>
</g>
<g id="g2051" transform="matrix(0.98624005,0,0,0.98624005,1.1090123,-1.4667031)">
	
		<pattern  id="rect5261_00000130632581758139271820000014918663032655057307_" xlink:href="#rect5261_0000012845572652717974" patternTransform="matrix(1.2288 0 0 1.2288 4048.7708 21215.7812)">
	</pattern>
	<path id="rect5261" style="fill:url(#rect5261_00000130632581758139271820000014918663032655057307_);" d="M203.3,29.2h39.2
		c2.3,0,4.2,1.9,4.2,4.2l0,0c0,2.3-1.9,4.2-4.2,4.2h-39.2c-2.3,0-4.2-1.9-4.2-4.2l0,0C199.2,31.1,201,29.2,203.3,29.2z"/>
	<path id="rect5261-0" class="st15" d="M203.3,29.2c-2.3,0-4.2,1.9-4.2,4.2s1.9,4.2,4.2,4.2h39.2c2.3,0,4.2-1.9,4.2-4.2
		s-1.9-4.2-4.2-4.2H203.3z"/>
	<g id="g1041" transform="matrix(0.90162812,0,0,1.2632814,4.6999299,-1.5462883)">
		<path id="path999" class="st16" d="M216.4,27.6c0,0.6-0.5,1.1-1.1,1.1l0,0c-0.6,0-1.1-0.5-1.1-1.1s0.5-1.1,1.1-1.1
			C215.9,26.6,216.4,27,216.4,27.6L216.4,27.6z"/>
		<path id="path999-2" class="st16" d="M268.5,27.6c0,0.6-0.5,1.1-1.1,1.1s-1.1-0.5-1.1-1.1l0,0c0-0.6,0.5-1.1,1.1-1.1l0,0
			C268,26.6,268.5,27,268.5,27.6z"/>
	</g>
</g>
<linearGradient id="path998_00000062881442177363030030000007577695042838643875_" gradientUnits="userSpaceOnUse" x1="-1058.4856" y1="149.5679" x2="-1058.4856" y2="382.4739" gradientTransform="matrix(3.7795 0 0 3.7795 4220.2466 -559.1271)">
	<stop  offset="0" style="stop-color:#404040"/>
	<stop  offset="1" style="stop-color:#262626"/>
</linearGradient>
<path id="path998" style="fill:url(#path998_00000062881442177363030030000007577695042838643875_);" d="M70.9,20.1
	c-25.5,0-46.2,20.7-46.2,46.2v752.1c0,25.5,20.7,46.2,46.2,46.2h297.6c25.5,0,46.2-20.7,46.2-46.2V66.3c0-25.5-20.7-46.2-46.2-46.2
	h-35.3c-5.4,0-8.2,0.6-8.2,9.1s-5.3,23-24.3,23h-162c-19,0-24.3-14.4-24.3-23s-2.8-9.1-8.2-9.1C106.2,20.1,70.9,20.1,70.9,20.1z"/>
</svg>
