<?xml version="1.0" encoding="UTF-8"?><svg id="uuid-74e61bd4-0418-409d-a13d-c68a756f3d84" xmlns="http://www.w3.org/2000/svg" xmlns:xlink="http://www.w3.org/1999/xlink" viewBox="0 0 439.4 884.81"><defs><linearGradient id="uuid-76eb5903-c6bc-4742-a434-6f79330e57f5" x1="-1641.68" y1="767.88" x2="-1641.68" y2="740.86" gradientTransform="translate(6637.98 3131) scale(3.78 -3.78)" gradientUnits="userSpaceOnUse"><stop offset="0" stop-color="#455d80"/><stop offset=".2" stop-color="#19365e"/><stop offset=".8" stop-color="#19365e"/><stop offset="1" stop-color="#455d80"/></linearGradient><linearGradient id="uuid-bed96ebb-eb06-41d6-aa82-44ab5b8adc6b" x1="-1661.55" y1="768.9" x2="-1661.55" y2="752.23" gradientTransform="translate(6285.97 3112.48) scale(3.78 -3.78)" gradientUnits="userSpaceOnUse"><stop offset="0" stop-color="#455d80"/><stop offset=".2" stop-color="#19365e"/><stop offset=".8" stop-color="#19365e"/><stop offset="1" stop-color="#455d80"/></linearGradient><linearGradient id="uuid-9b381617-e45a-4e8d-8d9a-fb2aa8922a6a" x1="-1661.55" y1="764.97" x2="-1661.55" y2="748.3" gradientTransform="translate(6285.97 3182.51) scale(3.78 -3.78)" gradientUnits="userSpaceOnUse"><stop offset="0" stop-color="#455d80"/><stop offset=".2" stop-color="#19365e"/><stop offset=".8" stop-color="#19365e"/><stop offset="1" stop-color="#455d80"/></linearGradient><linearGradient id="uuid-cfb121fb-d667-4175-b076-7ffcf56b1a94" x1="-1661.55" y1="771.91" x2="-1661.55" y2="763.52" gradientTransform="translate(6285.97 3059.31) scale(3.78 -3.78)" gradientUnits="userSpaceOnUse"><stop offset="0" stop-color="#455d80"/><stop offset=".2" stop-color="#19365e"/><stop offset=".8" stop-color="#19365e"/><stop offset="1" stop-color="#455d80"/></linearGradient><clipPath id="uuid-a6332f69-a173-4970-b8d2-53c94e923441"><path d="m71.5.61h296.4c37.3,0,67.5,30.2,67.5,67.5v748.6c0,37.3-30.2,67.5-67.5,67.5H71.5c-37.3,0-67.5-30.2-67.5-67.5V68.11C4,30.81,34.2.61,71.5.61Z" style="fill:none;"/></clipPath><pattern id="uuid-6e1d7dc4-fcab-40e7-a42f-4b7e07794fc9" x="0" y="0" width="363" height="730" patternTransform="translate(301 -547.89) scale(1.21 -1.21)" patternUnits="userSpaceOnUse" viewBox="0 0 363 730"><g><rect width="363" height="730" style="fill:none;"/><g><rect width="363" height="730" style="fill:none;"/><rect width="363" height="730" style="fill:none;"/></g></g></pattern><linearGradient id="uuid-36f1f184-9ba1-467a-b228-4ed6e0fb9081" x1="-1601.96" y1="807.77" x2="-1601.96" y2="574.87" gradientTransform="translate(6274.3 3059.15) scale(3.78 -3.78)" gradientUnits="userSpaceOnUse"><stop offset="0" stop-color="#404040"/><stop offset="1" stop-color="#262626"/></linearGradient></defs><path id="uuid-ea0752d1-fd1a-45b1-9af2-83df59f1021f" d="m428.1,227.61h10.3c.5,0,1,.4,1,1v102.3c0,.5-.4,1-1,1h-10.3c-.5,0-1-.4-1-1v-102.4c0-.5.5-.9,1-.9Z" style="fill:#12284a;"/><path id="uuid-c533cdbd-b97c-4d03-9251-d19daed0b074" d="m428.1,228.81h10.3c.5,0,1,.4,1,1v100.1c0,.5-.4,1-1,1h-10.3c-.5,0-1-.4-1-1v-100.1c0-.5.5-1,1-1Z" style="fill:url(#uuid-76eb5903-c6bc-4742-a434-6f79330e57f5);"/><path id="uuid-54961450-9f2b-45fe-8698-4eb70b33de28" d="m1,205.11h10.3c.5,0,1,.4,1,1v63.2c0,.5-.4,1-1,1H1c-.5,0-1-.4-1-1v-63.2c0-.6.5-1,1-1Z" style="fill:#12284a;"/><path id="uuid-0bfca548-e441-4f02-a4ac-d995da6ce28d" d="m1,206.41h10.3c.5,0,1,.4,1,1v61c0,.5-.4,1-1,1H1c-.5,0-1-.4-1-1v-61c0-.6.5-1,1-1Z" style="fill:url(#uuid-bed96ebb-eb06-41d6-aa82-44ab5b8adc6b);"/><path id="uuid-5b0c726a-200f-4089-ad28-017bb5f73a1f" d="m1,290.11h10.3c.5,0,1,.4,1,1v63.2c0,.5-.4,1-1,1H1c-.5,0-1-.4-1-1v-63.2c0-.6.5-1,1-1Z" style="fill:#12284a;"/><path id="uuid-c78828be-1c97-4433-b65f-4d23d899dd0f" d="m1,291.31h10.3c.5,0,1,.4,1,1v61c0,.5-.4,1-1,1H1c-.5,0-1-.4-1-1v-61c0-.5.5-1,1-1h0Z" style="fill:url(#uuid-9b381617-e45a-4e8d-8d9a-fb2aa8922a6a);"/><path id="uuid-b53ca9e2-d20f-4459-a141-dbab2a1d4d95" d="m1,140.61h10.3c.5,0,1,.4,1,1v31.8c0,.5-.4,1-1,1H1c-.5,0-1-.4-1-1v-31.8c0-.6.5-1,1-1Z" style="fill:#12284a;"/><path id="uuid-3f482ef9-2503-4826-8ede-85dc73e6854c" d="m1,141.81h10.3c.5,0,1,.4,1,1v29.7c0,.5-.4,1-1,1H1c-.5,0-1-.4-1-1v-29.7c0-.5.5-1,1-1Z" style="fill:url(#uuid-cfb121fb-d667-4175-b076-7ffcf56b1a94);"/><path id="uuid-87ed281a-3c4e-4dde-94bd-c90b17888e04" d="m71.5.61h296.4c37.3,0,67.5,30.2,67.5,67.5v748.6c0,37.3-30.2,67.5-67.5,67.5H71.5c-37.3,0-67.5-30.2-67.5-67.5V68.11C4,30.81,34.2.61,71.5.61Z" style="fill:#455d80; stroke:#12284a; stroke-linecap:round; stroke-linejoin:round; stroke-width:1.21px;"/><g style="clip-path:url(#uuid-a6332f69-a173-4970-b8d2-53c94e923441);"><path id="uuid-a7050444-0f8f-474c-aca8-048c923ea827" d="m71.5,2.91C35.4,2.91,6.4,31.91,6.4,68.01v748.7c0,36.1,29,65.1,65.1,65.1h296.5c36.1,0,65.1-29,65.1-65.1V68.11c0-36.1-29-65.1-65.1-65.1l-296.5-.1h0Z" style="fill:#142b4b;"/></g><path id="uuid-61058ca6-a5f5-4398-9cb1-ca76e2db2667" d="m338.7,0v14.5h9.9V0h-9.9ZM3.4,88.11v9.9h432.7v-9.9H3.4Zm0,700.2v9.9h432.7v-9.9H3.4Zm87.4,84v12.5h9.9v-12.5h-9.9Z" style="fill:#445b75;"/><path id="uuid-a9fffb80-2600-40d7-a7e7-d49610844d85" d="m72.6,6.11h294.2c35.1,0,63.6,28.5,63.6,63.6v745.3c0,35.1-28.5,63.6-63.6,63.6H72.6c-35.1,0-63.6-28.5-63.6-63.6V69.81c0-35.2,28.5-63.7,63.6-63.7Z" style="stroke:#434343; stroke-miterlimit:15.12; stroke-width:.61px;"/><g id="uuid-4572dc60-dd99-43f1-a984-4c0a792088b5"><circle id="uuid-3fec4f44-0878-4ed5-bb16-abadbac67db1" cx="263.02" cy="31.86" r="8" style="fill:#161616;"/><circle id="uuid-2c02c3de-6420-4495-92d6-3619a2bd7c06" cx="263.02" cy="31.86" r="4.9" style="fill:#0a0d13;"/><circle id="uuid-e2b0fef7-954f-4d06-bd63-189d73dcc1d6" cx="263.02" cy="31.86" r="3.8" style="fill:#091427;"/><path id="uuid-2b187fc0-660b-4e33-b607-22618ec197cb" d="m260.42,29.26c-.4,0-1.1.7-1.1,2.1,0,1.3.5,2.1.9,2.1.2,0,1.6-2,.2-4.2h0Z" style="fill:rgba(35,90,145,.56); fill-rule:evenodd;"/><path id="uuid-84349a97-acd3-4b9b-890e-05c8f2eba759" d="m263.62,28.86c-.7.2-.8,1.4-.8,2s.9,2.4,2.1,2c1.1-.4,1.3-1.8.8-2.7-.5-1-1.3-1.7-2.1-1.3Z" style="fill:rgba(35,90,145,.56); fill-rule:evenodd;"/></g><g id="uuid-6f3c3d78-f699-425c-b346-b87a2cfe87ba"><path id="uuid-2e4ed15c-16c0-425e-bb73-d9e6a4b724d6" d="m201.61,27.34h38.66c2.27,0,4.14,1.87,4.14,4.14h0c0,2.27-1.87,4.14-4.14,4.14h-38.66c-2.27,0-4.14-1.87-4.14-4.14h0c.1-2.27,1.87-4.14,4.14-4.14Z" style="fill:url(#uuid-6e1d7dc4-fcab-40e7-a42f-4b7e07794fc9);"/><path id="uuid-61823da2-3e16-4f09-aff4-8315698122c0" d="m201.61,27.34c-2.27,0-4.14,1.87-4.14,4.14s1.87,4.14,4.14,4.14h38.66c2.27,0,4.14-1.87,4.14-4.14s-1.87-4.14-4.14-4.14h-38.66Z" style="fill:none; stroke:#292929; stroke-linecap:round; stroke-miterlimit:14.5; stroke-width:.29px;"/><g id="uuid-565fd58c-7819-4026-9760-2a114472b6d1"><path id="uuid-249f3e10-9484-4a66-8193-be8fc7f994a9" d="m198.17,31.4c0,.75-.44,1.37-.98,1.37h0c-.53,0-.98-.62-.98-1.37s.44-1.37.98-1.37c.53.12.98.62.98,1.37h0Z" style="fill:#fff;"/><path id="uuid-1e484933-741f-41e5-ae29-755164682ce9" d="m244.5,31.4c0,.75-.44,1.37-.98,1.37s-.98-.62-.98-1.37h0c0-.75.44-1.37.98-1.37h0c.53.12.98.62.98,1.37Z" style="fill:#fff;"/></g></g><path id="uuid-f5b09672-7da6-4c3c-8e14-49f0cb92a6cd" d="m70.9,20.11c-25.5,0-46.2,20.7-46.2,46.2v752.1c0,25.5,20.7,46.2,46.2,46.2h297.6c25.5,0,46.2-20.7,46.2-46.2V66.31c0-25.5-20.7-46.2-46.2-46.2h-35.3c-5.4,0-8.2.6-8.2,9.1s-5.3,23-24.3,23h-162c-19,0-24.3-14.4-24.3-23s-2.8-9.1-8.2-9.1c0,0-35.3,0-35.3,0Z" style="fill:url(#uuid-36f1f184-9ba1-467a-b228-4ed6e0fb9081);"/></svg>